<?xml version='1.0' encoding='utf-8'?>
<svg xmlns="http://www.w3.org/2000/svg" enable-background="new 0 0 407.8 256.3" version="1.1" viewBox="0 0 407.8 256.3"> <style type="text/css">.st0{fill:url(#i);} .st1{fill:#649EC6;} .st2{fill:#A8B8BA;} .st3{fill:#AFB1D4;} .st4{fill:#B6BAD2;} .st5{fill:#71BEE5;} .st6{fill:#B2C5CF;} .st7{fill:#BBB2A9;} .st8{fill:#8C8C8C;} .st9{fill:url(#h);} .st10{fill:#999999;} .st11{fill:#ADA27E;} .st12{fill:#B8B8B8;} .st13{fill:url(#g);} .st14{fill:url(#f);} .st15{fill:#D3D391;} .st16{fill:#79A088;} .st17{fill:#60AFDD;} .st18{fill:#7B9185;} .st19{fill:#DACB8A;} .st20{fill:#5CB2CD;} .st21{fill:#29BCEA;} .st22{fill:#D4C37D;} .st23{fill:#ADC9CC;} .st24{fill:#DFE09B;} .st25{fill:#B4D2E9;} .st26{fill:#6DA2BF;} .st27{fill:#5B8AC3;} .st28{fill:url(#e);} .st29{fill:url(#d);} .st30{fill:#B72055;} .st31{fill:url(#c);} .st32{fill:#661830;} .st33{fill:#FDC99F;} .st34{fill:#FCC397;} .st35{fill:#FBB482;} .st36{fill:#006B6E;} .st37{fill:#523100;} .st38{fill:#EFAE8F;} .st39{fill:#FCCCB1;} .st40{fill:#D9B86D;} .st41{fill:#B18421;} .st42{fill:#FFFFFF;} .st43{fill:#004FA3;} .st44{fill:#E68A1D;} .st45{fill:#FFCC78;} .st46{fill:#8AD4E1;} .st47{fill:#483778;} .st48{fill:#AABC4D;} .st49{fill:#BFB200;} .st50{fill:#CF7418;} .st51{fill:#006BB6;} .st52{fill:url(#b);} .st53{fill:#B17F43;} .st54{fill:#FDD8C2;} .st55{fill:#FDCFAA;} .st56{fill:#D88353;} .st57{fill:#674B3D;} .st58{fill:#FBB98A;} .st59{fill:#00316C;} .st60{fill:#2C61AE;} .st61{fill:url(#a);} .st62{fill:url(#k);} .st63{fill:url(#j);} .st64{fill:#BFBFBF;} .st65{fill:#F79560;} .st66{fill:#FEDCBF;} .st67{fill:#F7DB7D;} .st68{fill:#007F60;} .st69{fill:#E5D89B;} .st70{fill:#BBB8DC;} .st71{fill:#ECA078;} .st72{fill:#FFE0BF;} .st73{fill:#C5CA67;} .st74{fill:#E9DF91;} .st75{fill:#1072A8;} .st76{fill:#5FA3CB;} .st77{fill:#9CBDDF;}</style> <linearGradient id="i" x1="204.33" x2="204.33" y1="25.884" y2="245.17" gradientTransform="matrix(-1 0 0 1 407.81 0)" gradientUnits="userSpaceOnUse"> <stop stop-color="#ABBAA2" offset="0"/> <stop stop-color="#A8B8A7" offset=".018359"/> <stop stop-color="#9CB3B6" offset=".089153"/> <stop stop-color="#91AEC2" offset=".1705"/> <stop stop-color="#89ABCB" offset=".2653"/> <stop stop-color="#83A9D2" offset=".3827"/> <stop stop-color="#7FA8D6" offset=".547"/> <stop stop-color="#7DA7D9" offset="1"/> </linearGradient> <path class="st0" d="m186.6 33.7c-6.9-2.4-16.6-5.2-28.5-6.8 0 0-4.6-0.6-9.1-1-5.9-0.5-52.6 9.5-78.6 10.8-7.3 0.4-55.5 2.1-66.6 5.6-0.9 0.3-3.8 1.2-3.8 2.5 0 1.5 3.7 2.8 7.8 4.1 7.9 2.6 10.9 2.3 11.7 4.4 1.1 2.7-2.5 6.5-3.3 7.3-4.7 5-9.6 3.9-12.3 6-11 8.6 22.5 65.2 12.3 73.3-3.1 2.5-8-1.4-12.1 2.2-4 3.6-2.8 11-1.3 20.1 1.6 9.6 2.6 16 7.6 22.3 3.5 4.5 8 6.9 16.9 11.7 10.6 5.8 15.9 8.7 23.6 10 10.1 1.8 10.8-1.1 27.4-0.5 5.2 0.2 11.3 0.8 19 2.5 22 4.8 26.4 8.7 36.8 12.2 4.8 1.6 8.2 2.2 10.9 2.9 20.6 4.9 22.6 10.4 38.1 12.7 5.3 0.8 2.4-0.3 22.4 0.7 9.9 0.5 14.3 0.9 22 0.7 8.1-0.2 13.6-1 16.4-1.3 16.7-1.9 31.5 2 43.3 4.3 14.1 2.7 49.4 9.6 84.4-1 13.5-4.1 27.3-8.3 32.7-20.4 6.3-13.9-0.2-34.9-5.6-42.3-7.5-10.2-5.9-10-7.3-16-5.3-23.7 19.4-38.6 13.2-53.6-1.3-3-2.2-2.1-26.8-17.1-3.5-2.1-10.4-6.4-24.1-15-23.4-14.6-21.9-14-23.9-15-14.7-7.2-21.5-5.1-46.1-8-20-2.4-18.7-5.4-47.7-11.3-11.4-2.4-28.3-5.3-49.4-7z"/> <path class="st1" d="m73.7 113.8c-1.8 1.1-4.9 2.7-8.9 3.2-4.3 0.6-7.6-0.3-9.7-0.9-15.1-4.2-23.8-7.8-23.8-7.8-5.3-2.2-11.9-5.1-19.5-8.8 3.2 4.7 8.5 11.4 17 17 7.8 5.1 9.5 3.5 16 8.2 11.9 8.5 9.1 15.9 21.2 24 5.7 3.8 14.3 7.6 14.3 7.6s-0.1 0-0.3-0.1c-8.6-4.2-25.9 1.9-16.2 11.3 17.3 8 35.1 12.7 51.3 21.2 21.6 9.9 43.7 16 65.8 24-4.9 4.2-10.3-4.2-16.2-0.9-21-5.2-39.9-13.6-60.4-19.8-17.3-6.6-35.6-8.9-51.3-19.3-0.5-10.8-20-15.1-22.7-2.8-1.6 12.7 22.7 12.7 20.5 24.5 4.9 2.6 11.9 7.1 18.4 14.3 7.6 8.4 11.1 16.7 12.7 21.8 12.4 4.5 48 17 80.8 22.8 14 2.5 21 3.7 29.5 3 12.6-1.1 18.9-4.7 31.9-2.6 6.6 1.1 12.9 3.4 13.2 2.6 0.4-1.1-10.4-5.9-10-7.1 0.2-0.5 2.7-0.4 14.6 3 3.4 1.4 9.1 3.2 16.3 3.2 8.9 0 15.7-2.7 19.3-4.4-12.7-5.1-18-7.6-17.8-8.1s5.8 0.9 18.7 4.9c6.5 1.2 15.3 2.4 25.8 2.8 7.5 0.3 19.1 0.7 34-1.9 6.8-1.2 15.9-3.3 26.4-7.2-10.2 0.8-22 1.1-34.9 0.1-21.8-1.7-40.2-6.3-54.4-11.1-0.1-0.3-0.3-0.6-0.6-0.9-0.3-0.4-0.7-0.7-1-1 8.4 1.5 20.3 3.2 34.5 3.8 37.5 1.4 67.7-6.3 67.5-7.6-0.1-0.9-24.2 9.7-47.4-0.8-9.9-4.5-17.8-12-32-12.2-5.5-0.1-9.9 0.9-12.9 1.8-2.4-3-5.9-6.5-9.1-5.8-2.4 0.5-2.9 2.9-5.2 3.6-2 0.6-5.4-0.2-11.1-6.7-3.5 0.9-8 1.7-13.2 1.8-9.5 0.3-17.1-1.6-21.9-3.2-1.1 0.5-2.7 0.9-3.8 1.4-7.6-5.6 9.2-3.3 4.9-9.9-6.5-13.2-27.5-9.9-40.5-15.5-11.9-2.4-22.1-8.9-35.6-8.9-3.8-6.1-11.9-0.9-16.7-6.1-6.7-1.9-53.7-15.5-57.5-43.8-0.2-2.1-0.3-4.3 0-6.7z"/> <path class="st1" d="m176.3 35.3c-16.3 0.9-11.4 29.2 5.4 25 9.8 0.9 20.2-3.3 26.7 4.7 2.2 0 3.8 0.5 6 0.5-3.3 1.9-7.1 4.7-7.6 8-16.3-12.7-39.2-6.1-57.2-15.1-2.2-11.8-19.6-7.1-29.4-7.1-13.3 1.7-22.6-0.2-28.6-2.2-5.6-1.9-9.9-4.4-17.7-5.3-6.6-0.7-12.2 0.2-15.9 1.1-12.1 0.9-24.1 1.8-36.2 2.6 8.7 1.2 18.2 2.9 28.5 5.3 10.3 2.5 19.7 5.2 27.9 8.1 5.6-0.1 11.3-0.2 16.9-0.3 4.9 1.6 9.7 3.1 14.6 4.7 4.6-0.4 9.1-0.9 13.7-1.3 14.2 12.7 34.9 9.9 52.3 14.6 9.3 1.9 0.5 9.9 9.3 12.3 31.1 0.9 58.9 7.1 87.2 14.1 2.7 0 10.9-2.4 12-3.3 1.1-13.2-18.5-14.6-27.8-20.3-2.7-2.4-9.8-1.4-11.4-5.2 11.4 4.7 20.2-11.3 7.6-14.6 10.9-11.8-10.9-19.3-21.8-17.9-14.7-0.5-28.3 3.3-43.6 2.8-6.6-2.7-3.9-9.3-10.9-11.2z"/> <path class="st2" d="m121.7 48.2c-8 1.2-11.9 2.1-11.9 2.8 0.1 0.6 3.5 1 10.4 1.2 0.4 4.4 4.6 6.5 9.8 7.4 1.9 2.8 6.5-0.5 7.6 3.4 10.7 4.2 20.4 9.3 28.1 16l2.1 0.6c-3.4 3.5-8.6-0.5-12.1-2-8.1-4.8-18.7-6.9-26-12.3-0.8-0.4-4.6-0.3-5.6 0.1-3.6 6.7 7 7.6 11 10.5 7.4 2.5 13.5 6.1 20.4 9.3 0 7.2 11 2.7 14.2 7.8 12 1.8 20.8 8.9 27.8 16.1 1.2 0 2-0.1 3.2-0.1 0.9-0.9 1.6-1.9 2.1-2.7 3.9-7.3-2.8-15.8-3.7-17-7-3.1-14.7-7.4-22-13.6-1.3-1.1-2.5-2.2-3.7-3.3 8.5 2.5 14.7 5.4 18.7 7.7 5.9 3.3 8.4 5.7 14.3 8.1 6.2 2.6 12 3.5 15.7 3.9 12.1 1.1 14.8 0.7 14.9 0.2 0.2-0.8-4.7-1.9-13.1-5.8-0.9-0.4-9.1-4.2-8.7-4.9 0.2-0.3 2.2 0 10.8 2.7l15.3 6c-3.7-2.5-7.3-5-11-7.5-2.1-0.9-4.3-1.7-6.4-2.7-6.9-3-13.2-6.1-19.1-9.2 5.4 0.4 13.8 1.5 23.2 5.3 9.2 3.7 15.6 8.5 19.5 11.8 8.2 0.9 5.2-8.6 0.3-10.4-3.8-2.7-11.1-7.1-21.4-9.2-6.9-1.4-12.9-1.3-17-1-2-0.6-4-1.3-6.1-1.9-3.1-1-6.1-1.9-9.1-2.8-10.1-1.4-15.3-1.6-15.7-0.6-0.3 1 5 3.4 15.9 7.1 1.5 0.4 3.6 1.2 5.7 2.5 4 2.5 5.9 5.7 6.8 7.4-6.3-6-20.2-17.2-41-20.5-4.8-0.8-9.3-1-13.4-0.9-5.3-1.2-10.9-2.7-16.7-4.5-5.1-1.8-9.8-3.4-14.1-5z"/> <path class="st3" d="m132.4 49.8c13.6 7.1 27.9 12.8 38.6 22.8 0.8 0.5 1.7 1.2 2.5 1.6 0.6-0.6 1.5-1 2.1-1.6-11.9-10.3-25.5-21.5-43.2-22.8z"/> <path class="st3" d="m168.2 59.8c13.6 7.1 27.9 12.8 38.6 22.8 0.8 0.5 1.7 1.2 2.5 1.6 0.6-0.6 1.5-1 2.1-1.6-11.9-10.2-25.5-21.4-43.2-22.8z"/> <path class="st3" d="m178.8 70.2c13.6 7.1 27.9 12.8 38.6 22.8 0.8 0.5 1.7 1.2 2.5 1.6 0.6-0.6 1.5-1 2.1-1.6-12-10.2-25.5-21.4-43.2-22.8z"/> <path class="st3" d="m132.3 70.1c13.6 7.1 27.9 12.8 38.6 22.8 0.8 0.5 1.7 1.2 2.5 1.6 0.6-0.6 1.5-1 2.1-1.6-12-10.3-25.5-21.5-43.2-22.8z"/> <path class="st4" d="m105.2 176.8c-2.1 0.5-2.9 4.7-0.6 5.8-0.3 3.6 1.8 5.8 4.6 7.1 0.7 2.5 3.7 0.5 3.8 3.7 5.4 4.7 10.2 10 13.7 16.4 0.4 0.3 0.7 0.5 1.1 0.8-2.3 2.3-4.7-1.5-6.5-3.2-3.9-4.8-9.6-7.9-13-13.1-0.4-0.4-2.5-0.9-3.1-0.7-2.8 4.9 3 6.9 4.9 9.7 3.8 2.9 6.8 6.6 10.2 10-0.9 5.7 5.8 3.6 7 8 6.5 3 10.5 9.7 13.6 16.4 0.7 0.2 1.1 0.2 1.8 0.3 4.1-2.8-0.5-8.5-2.7-11.1-1.9-3.4-4.6-5.8-7.1-8.6 4.4-1.3 8.1 3.2 12.1 5.1 5.1 2.7 8 7.1 12.6 10.7 2.1 1 2.4-3.8 4.4-1.1 3.1 1.8 4.4-3.9 2.1-5.8-4.1-6.9-9-13-14.9-18.3 3.6 1.4 7.9 3.4 12.5 6.3 4.5 2.8 8 5.8 10.7 8.4 9.3 1.4 14.1 1.7 14.3 1s-3.7-2.3-11.5-4.9c-4.2-1.7-9.4-4.3-14.7-8.6-2.8-2.2-5.1-4.4-7-6.5-1.2-0.4-2.1-1.5-2.3-2.8-0.1-1.4 0.7-2.7 2-3.3-7.3-0.1-9.2-0.8-9.3-1.5-0.1-0.8 1.9-1.5 1.8-2.3-0.2-0.8-2.5-0.5-4.8-1-1.7-0.4-4-1.3-6.5-3.8 1.9 2.6 3.8 5.2 5.8 7.8-1.1-0.6-2.3-0.8-3-0.3-1 0.7-1.2 3 0.5 5-2.5-3-5.3-6.2-8.4-9.4-3.3-3.4-6.6-6.6-9.7-9.4-4.1-3.4-9.5-5.8-14.4-6.8z"/> <path class="st5" d="m101.4 184c8.6 4.7 17.5 8.4 24.6 15.2 0.5 0.3 1.1 0.8 1.6 1.1 0.3-0.4 0.8-0.8 1.1-1.2-7.9-7-16.8-14.6-27.3-15.1z"/> <path class="st5" d="m123.4 192.5c7 6.9 14.6 12.8 19.7 21.3 0.4 0.4 0.9 1.1 1.3 1.5 0.4-0.3 1-0.5 1.4-0.9-5.8-8.9-12.4-18.6-22.4-21.9z"/> <path class="st5" d="m125.5 204.9c8.7 4.6 17.7 8 24.9 14.7 0.5 0.3 1.1 0.8 1.7 1.1 0.3-0.4 0.8-0.8 1.1-1.2-8.1-6.9-17.1-14.3-27.7-14.6z"/> <path class="st5" d="m101.7 195c7 6.9 14.6 12.8 19.7 21.3 0.4 0.4 0.9 1.1 1.3 1.5 0.4-0.3 1-0.5 1.4-0.9-5.8-8.9-12.4-18.6-22.4-21.9z"/> <path class="st6" d="m42.8 122.6c-9-4.4-11.2-4.9-11.5-4.5-0.4 0.7 4 4.4 9 8.5 3.7 3.1 5.5 4.4 5.3 4.9-0.2 0.4-1.9 0.3-9.3-2.5 2.1 2.9 5.6 6.5 10.5 7.5 3.9 0.8 8.4-0.2 8.5 0.3 0.1 0.4-4 0.9-4.3 2.7-0.1 0.6 0.2 1.2 0.5 1.6 5.4 4.7 10.2 10 13.7 16.4 0.4 0.3 0.7 0.5 1.1 0.8-2.3 2.3-4.7-1.5-6.5-3.2-3.9-4.8-9.6-7.9-13-13.1-0.4-0.4-2.5-0.9-3.1-0.7-2.8 4.8 3 6.9 4.9 9.7 3.8 2.9 6.8 6.6 10.2 10-0.9 5.7 5.8 3.6 7 8 2.6 2.1 5.3 4.3 8.1 6.8 3.6 3.2 6.7 6.4 9.5 9.5-1.7-3.3-2.4-5.1-2-5.3 0.3-0.2 1.5 1 3.5 3.5 1.7-0.1 3.3-0.2 5-0.2-3.8-2.9-7.6-5.7-11.3-8.6-1.9-3.4-4.6-5.8-7.1-8.6 3.1 0.8 7.4 2.2 12.1 5.1 4.3 2.6 7.3 5.6 9.3 7.8 3 1.6 5.9 3 6.3 2.4 0.5-0.7-3.5-4.3-3-5 0.3-0.3 1.7 0.1 6.3 2.8 6.1 1.2 8.1 1.4 8.3 1 0.2-0.9-11.1-3.5-11.3-7.8 0-1.4 1.3-2.7 2.8-3.8-2.4-0.3-7.5-1.4-12.5-5.3-4.7-3.6-7-7.8-8-10 5.7 3.5 10.4 5.8 13.8 7.3 2.5 1.1 3.5 1.4 4.9 2.3 5.2 3.2 8 8.1 9.4 11.9 3.1 1.4 6.1 2.9 9.2 4.3-3.8-4.9-7.7-9.8-11.5-14.7-2.9-3-5.9-6-8.8-9-1.2 0-3.1-0.3-5.2-1.3-3-1.5-4.6-3.7-5.2-4.8-0.2-0.3-0.5-0.6-1-0.9-1.3-0.6-2.6 0.3-3.6-1.6-2.3-1.3-7.2-3.3-6.4 2.2-1.1 0.6-1.2 2.3-2 3.4-4.5-7.9-9.3-16.1-17-21-2.1-1.5-4.4-3.1-6.9-4.6-3.3-1.6-6.1-3-8.7-4.2z"/> <polygon class="st7" points="37.5 165.4 52.3 170.7 64.5 212.1 46.9 219 31.9 220.3"/> <polygon class="st8" points="58.1 192.5 77.2 197.8 78.8 211.6 61.8 220.6 49.6 218.5"/> <linearGradient id="h" x1="255.7" x2="396.93" y1="225.26" y2="225.26" gradientTransform="matrix(-1 0 0 1 407.81 0)" gradientUnits="userSpaceOnUse"> <stop stop-color="#D2C185" offset="0"/> <stop stop-color="#A39456" offset=".3084"/> <stop stop-color="#8C7F42" offset=".5"/> <stop stop-color="#8A7E40" offset=".8333"/> </linearGradient> <path class="st9" d="m55.8 213.8c3.8 0.4 7.6 0.7 11.4 1.1 2.8-1.5 5.6-2.9 8.3-4.4l7.3 8.5 18.4-3.2 15.1 2.1 6.1-4.3 9.5 8 1.1 12.7 7.8 8 11.2 5.3c-0.8 1.2-2.5 3.4-5.5 4.7-6.3 2.8-12.3-1-12.9-1.3-9.3-1.6-18.5-3.3-27.8-4.9-6.1-2.3-10.5-2.1-13.7-0.5-3.9 1.9-4.3 4.9-8.5 7.1-2.3 1.2-5.2 2-13.8 0.9-5.4-0.7-13-2.1-21.9-5.2-4.4-0.5-8.7-1-13.1-1.5-5.6-1.5-11.2-3-16.8-4.4-0.3-2.5-1.1-6.4-2.9-10.8-2.2-5.4-4.1-7.3-4.3-10.9-0.1-2.5 0.5-6.1 4.5-10.8-0.7-6.4 3.4-12.2 9.2-13.5 5.1-1.1 10.6 1.5 13.2 6.4 6.1 3.6 12.1 7.3 18.1 10.9z"/> <path class="st10" d="m77.2 197.8c3 2.5 6 5 9 7.4l8.5-4.8 11.2 6.4 9 0.5 9.6 5.8-4.2 8.5-32.4-1.1-13.3-4.2c0.8-6.1 1.7-12.3 2.6-18.5z"/> <path class="st11" d="m136.7 236 16.5 1.6s10.1-1 12.2-2.1 10.1 5.3 10.1 5.3l6.4 6.9-31.9-0.5-17.5-5.3 4.2-5.9z"/> <path class="st12" d="m256.7 62.7c-5.6-1.3-11.1-2.6-16.5-3.8l-21.3-3.3c-12.4-4.2-30.3-8.9-52.2-9.4-14.2-0.3-30.7 1.8-30.7 4 0 0.9 3 1.1 15.1 4.9 8.4 2.6 11.3 3.9 17.2 4.8 4.5 0.7 6.2 0.4 9.5 0.7 10.4 0.9 14.1 5.1 24.4 9 8.1 3.1 5.2 0.2 31 5.2 2.4 0.5 10.6 0.4 20.8 1.7 1 0.1 7.3 0.8 12.1-3.8 2.6-2.4 3.5-5.3 3.9-6.7-4.4-1.1-8.9-2.2-13.3-3.3z"/> <linearGradient id="g" x1="203.91" x2="203.91" y1="3.6759e-7" y2="110.1" gradientTransform="matrix(-1 0 0 1 407.81 0)" gradientUnits="userSpaceOnUse"> <stop stop-color="#ABBAA2" offset=".082051"/> <stop stop-color="#A8B89E" offset=".090079"/> <stop stop-color="#91A981" offset=".1549"/> <stop stop-color="#7F9E6C" offset=".2212"/> <stop stop-color="#71975A" offset=".2882"/> <stop stop-color="#67924E" offset=".3562"/> <stop stop-color="#618F48" offset=".426"/> <stop stop-color="#5F8E46" offset=".5"/> </linearGradient> <path class="st13" d="m0.1 12.9c-0.5 3.3 3.4 5.2 4.5 12.7 1.2 7.9-2 14.9-4.6 19.3 8.7-0.8 21.6-2 37.3-3.4 18.5-1.7 22.6-2.1 26.9-2.6 23.4-3 27.3-4.3 43.7-6.3 24.1-2.9 54.7-6.6 78.6 1.2 3.1 1 10.3 3.6 20.7 5.4s16.1 1.4 23 2c13.5 1.3 19 5.4 34.7 11.4 20.2 7.6 38.8 11.2 61.4 15.6 9.3 1.8 22 2.6 33.3 11.6 3.2 2.5 4.5 4.2 8.7 7.8 9.5 8.1 18.8 12.8 25.1 15.5 4.3 2.4 8.7 4.8 13 7.2 1.1-6.4 0.2-11-0.9-14-1.1-3.1-2.5-4.7-3.2-8.6-0.8-4.1-0.1-7.4 0.1-9.2 1.2-9.2 5.6-14.1 5.3-28-0.1-5.9-0.5-18.5-8.4-29.9-1.3-1.9-6.6-9.1-17.3-14.6-18.7-9.5-37.3-5.3-60.6-1.4-23.4 3.9-47.7 7-61.6 8-40.2 3-43.9-7.1-103.7-10.8-1.6-0.1-25.7 0.1-73.7 0.4-37 0.1-80.7 0.6-82.3 10.7z"/> <linearGradient id="f" x1="178.4" x2="55.304" y1="68.026" y2="68.026" gradientTransform="matrix(-1 0 0 1 407.81 0)" gradientUnits="userSpaceOnUse"> <stop stop-color="#D2C185" offset=".05641"/> <stop stop-color="#CCBC7F" offset=".1772"/> <stop stop-color="#BDAC70" offset=".3616"/> <stop stop-color="#A59658" offset=".5853"/> <stop stop-color="#8A7E40" offset=".8077"/> </linearGradient> <path class="st14" d="m326.6 66.4c-3.7-6.1-0.8-9.4-3.9-15.8-2.3-4.7-6-7.3-7.5-8.3-3.1-2.2-4.5-2-12.1-4.6-11.1-3.8-12.3-5.6-15.7-4.7-3.8 1.1-6 4.4-8.8 8.5-3.4 5.2-4.8 10.2-5.5 13.4-4.8 7.8-9.5 15.6-14.3 23.4-9.8 2-19.7 4-29.5 6 8 5.3 16.1 10.7 24.1 16 8.7 1 17.3 1.9 26 2.9 9.1-2.5 18.2-5 27.3-7.6 7.7 0.2 15.4 0.4 23.1 0.7 5.7-1.6 10.4-2.7 13.6-3.3 4.5-0.9 6.6-1.2 7.9-2.9 2.5-3.3 0.1-8.8-0.8-10.8-4.1-3.5-7.8-4.8-10.4-5.4-3.3-0.8-5.4-0.4-8.3-2.1s-4.5-4.2-5.2-5.4z"/> <path class="st15" d="m286.4 102.2c-6.5 0.5-15.9 1.1-17.8 8.9 0.5 0.8 1.1 1.9 1.3 2.7 0.4 0.4 1.1 0.9 1.8 0.8 1.5-0.2 1.6-2.6 3-3.3 2.2-1 6.1 2.9 6.8 3.6 5.2 5.3 4.4 9.2 7.8 12 2 1.6 5.6 3 12.6 1.4-1-0.2-4.4-0.9-7-3.8-3.4-3.9-3-8.6-3-9.4 1.7 2.2 4.3 5 8.2 6.9 2.5 1.3 4.7 1.8 6.5 2.3 3.6 0.9 5.3 0.8 10.8 1.5 2.8 0.4 5 0.8 6.3 1 2.9 1.1 7.7 2.4 13.8 2 9.3-0.6 15.9-5 18.5-7-2.1-1.9-5.3-4.3-9.7-6.2-7.5-3.2-10.4-1.3-23.5-4.3-5.3-1.2-6.8-1.3-12.4-2.9-3.8-1.1-7.3-3-11.6-1.3-3.5-3.8-8.1-3.8-12.4-4.9z"/> <path class="st16" d="m82.6 218s7-21.7 6-42.8c0 0-3.9 34.1-9.9 42.3-0.5 0.7 3.9 0.5 3.9 0.5z"/> <path class="st16" d="m78 217.5s7.4-10.2 7-47.4c0 0-2.4 31.5-9.2 47-0.2 0.7 2.2 0.4 2.2 0.4z"/> <path class="st16" d="m75.1 217.9s6.8-31.3 5.6-61.7c0 0-2.8 44.1-8.1 57.9-1.8 4.6 2.5 3.8 2.5 3.8z"/> <path class="st16" d="m70.1 217.4s7.3-15.2 6.4-68.7c0 0-1.2 48.6-9.2 68.2-0.5 1.2 2.8 0.5 2.8 0.5z"/> <path class="st16" d="m73 217.3s2.5-38.6-1.9-69.2c0 0 2.9 53-2 68.7-0.3 1.3 3.9 0.5 3.9 0.5z"/> <path class="st16" d="m67.3 217.4s6-19-1.3-69.3c0 0 4.9 45.2-1.7 67.6-0.7 2.2 3 1.7 3 1.7z"/> <path class="st16" d="m65.2 217.6s1.8-33.5-4-63c0 0 4.5 47.2 0.7 62.1-0.1 0.8 3.3 0.9 3.3 0.9z"/> <path class="st16" d="m60.5 217.4s4.6-16.4-4.3-68.9c0 0 6.2 45.8 1.9 68.5l2.4 0.4z"/> <path class="st16" d="m49.6 216.2s-6.9-33.3-5.9-64.1c0 0 3 47.1 8.5 63.8l-2.6 0.3z"/> <path class="st16" d="m54.5 217.2s-8.4-17.2-6.7-67.8c0 0-0.7 46 9 66.7 0.7 1.4-2.3 1.1-2.3 1.1z"/> <path class="st16" d="m44.7 216.5s-8.5-26.5-10.9-53.6c0 0 7.3 40.2 13.5 53.3l-2.6 0.3z"/> <path class="st16" d="m48.5 216.7s-7.1-9-9.5-50.8c0-0.7 3.2 35.8 13.6 50.5 1.2 1.7-4.1 0.3-4.1 0.3z"/> <path class="st16" d="m40.8 216.6s-8-18-12.1-38c0 0 8.8 28.9 14.5 37.5l-2.4 0.5z"/> <path class="st16" d="m85.4 217.7s8.2-14.5 9.6-32c0 0-7.3 23.1-12.4 30.9-1.2 1.8 2.8 1.1 2.8 1.1z"/> <path class="st16" d="m89.4 218.3s7.7-11.6 9.1-26.2c0 0-5.9 20.4-11.7 25.7l2.6 0.5z"/> <path class="st16" d="m57.7 217.2s-4.7-65.4-3.4-70.9c0 0-0.7 0.2-0.8 9.3-0.1 9.2 0.7 56 3.1 61.4l1.1 0.2z"/> <path class="st16" d="m37.4 217s-10-17.1-16.5-38.3c0 0 12.5 29.8 19.3 37.7l-2.8 0.6z"/> <path class="st16" d="m42.3 216.6s-7.6-4.8-18.3-39.7c0 0 10.4 29.4 20.3 39.3l-2 0.4z"/> <path class="st4" d="m208.6 88.6c-2.7 0.4-3.8 3.3-0.7 4.1-0.4 2.5 2.4 4.1 6.1 5 0.9 1.7 4.9 0.3 5 2.6 7.2 3.3 13.6 7 18.1 11.5 0.5 0.2 1 0.4 1.5 0.5-3 1.6-6.2-1-8.6-2.2-5.2-3.4-12.7-5.5-17.2-9.2-0.5-0.3-3.4-0.6-4.1-0.5-3.7 3.4 3.9 4.8 6.4 6.8 5 2.1 9 4.6 13.6 7-1.2 4 7.7 2.5 9.2 5.6 8.6 2.1 13.9 6.8 18 11.5 0.9 0.1 1.5 0.1 2.4 0.2 5.4-1.9-0.7-6-3.5-7.8-2.5-2.4-6.1-4.1-9.4-6 5.8-0.9 10.7 2.3 16 3.6 6.8 1.9 10.6 5 16.7 7.5 2.8 0.7 3.2-2.6 5.9-0.8 4.1 1.3 5.9-2.7 2.8-4.1-2.1-2.1-5-4.6-9-6.8-2.1-1.2-4.2-2-6-2.7 7.7 1.3 11.6 1.7 11.7 1.1 0.1-0.5-2.1-1.5-6.7-3.1-3.2-1.3-6.3-2.5-9.5-3.8-0.3-0.7-1.1-2.3-3-3.4-1.2-0.7-2.3-0.9-2.9-0.9-3.1-0.9-9.5-2.3-8.5 1.6-1.5 0.4-1.6 1.6-2.7 2.4-5.9-5.6-12.3-11.3-22.4-14.8-5.6-2.5-12.7-4.2-19.2-4.9z"/> <path class="st17" d="m214.3 93.4c9.3 4.8 19.3 8.9 26 14.9 0.5 0.3 1.1 0.7 1.7 1 0.5-0.2 1.3-0.4 1.8-0.6-7.6-6.2-16.3-13-29.5-15.3z"/> <path class="st17" d="m240 101.7c9.3 4.8 19.3 8.9 26 14.9 0.5 0.3 1.1 0.7 1.7 1.1 0.5-0.2 1.3-0.4 1.8-0.6-7.6-6.2-16.3-13.1-29.5-15.4z"/> <path class="st17" d="m246.6 107.9c9.3 4.8 19.3 8.9 26 14.9 0.5 0.3 1.1 0.7 1.7 1 0.5-0.2 1.3-0.4 1.8-0.6-7.6-6.2-16.3-13-29.5-15.3z"/> <path class="st17" d="m211.3 103.5c9.3 4.8 19.3 8.9 26 14.9 0.5 0.3 1.1 0.7 1.7 1 0.5-0.2 1.3-0.4 1.8-0.6-7.5-6.2-16.2-13-29.5-15.3z"/> <path class="st16" d="m270.6 80.7s7.3-11 8.4-22.2c0 0-6 17.8-11.4 21.7-0.4 0.2 3 0.5 3 0.5z"/> <path class="st16" d="m267 80s6.7-4.8 9.6-24.6c0 0-4.6 16.5-11.3 24.2-0.2 0.4 1.7 0.4 1.7 0.4z"/> <path class="st16" d="m264.7 80s8-16.1 9.7-32.3c0 0-6 23.2-11.4 30.1-1.7 2.3 1.7 2.2 1.7 2.2z"/> <path class="st16" d="m260.9 79.3s7-7.5 11-35.9c0 0-5.2 25.7-13.1 35.5-0.6 0.5 2.1 0.4 2.1 0.4z"/> <path class="st16" d="m263.2 79.5s5.3-20.3 4.5-36.9c0 0-2.3 28.4-7.5 36.3-0.4 0.7 3 0.6 3 0.6z"/> <path class="st16" d="m258.7 79.1s6.3-9.6 5-36.9c0 0-0.1 24.4-7.2 35.7-0.7 1.2 2.2 1.2 2.2 1.2z"/> <path class="st16" d="m257.1 79s4.3-17.6 2.4-33.7c0 0-0.6 25.4-4.8 33-0.3 0.4 2.4 0.7 2.4 0.7z"/> <path class="st16" d="m253.4 78.6s5.1-8.3 2.6-36.9c0 0 0.8 24.8-4.5 36.5l1.9 0.4z"/> <path class="st16" d="m245 77s-2.5-18.2 0.9-34.5c0 0-1.7 25.2 1.1 34.5h-2z"/> <path class="st16" d="m248.7 78s-5.1-9.8 0.6-36.5c0 0-4.6 24.3 1.3 36.1 0.4 0.8-1.9 0.4-1.9 0.4z"/> <path class="st16" d="m241.1 76.8s-4.3-14.7-3.9-29.3c0 0 2.2 21.9 5.9 29.3h-2z"/> <path class="st16" d="m244.1 77.2s-4.7-5.4-3-27.7c0-0.4-0.6 19.2 6.2 27.9 0.8 1-3.2-0.2-3.2-0.2z"/> <path class="st16" d="m238 76.6s-4.7-10.2-6.1-21.1c0 0 4.4 16 8.1 21.1h-2z"/> <path class="st16" d="m241.3 76.8s-4.8-4-7.1-22c0 0 2.9 15.4 8.5 22h-1.4z"/> <path class="st16" d="m272.9 80.7s7.6-7 10.3-16.2c0 0-7.7 11.7-12.4 15.4-1.1 0.9 2.1 0.8 2.1 0.8z"/> <path class="st16" d="m275.9 81.3s7-5.5 9.3-13.1c0 0-6.4 10.3-11.4 12.7l2.1 0.4z"/> <path class="st16" d="m235.4 76.5s-6.3-9.9-9.6-21.6c0 0 7.1 16.8 11.8 21.5l-2.2 0.1z"/> <path class="st16" d="m239.2 76.7s-5.5-3.1-10.8-22.5c0 0 5.6 16.4 12.4 22.5h-1.6z"/> <path class="st18" d="m250.8 79.4s6.1-8.4 6.9-17.2c0 0-4.9 13.7-9.4 16.7-0.4 0.2 2.5 0.5 2.5 0.5z"/> <path class="st18" d="m247.7 78.9s5.6-3.7 7.8-19c0 0-3.7 12.8-9.2 18.7-0.2 0.2 1.4 0.3 1.4 0.3z"/> <path class="st18" d="m245.8 78.8s6.6-12.4 7.8-24.9c0 0-4.8 17.9-9.3 23.2-1.4 1.7 1.5 1.7 1.5 1.7z"/> <path class="st18" d="m242.5 78.3s5.9-5.7 8.9-27.8c0 0-4.1 19.9-10.7 27.4-0.4 0.4 1.8 0.4 1.8 0.4z"/> <path class="st18" d="m244.5 78.4s4.2-15.7 3.4-28.5c0 0-1.6 22-5.9 28.1-0.4 0.4 2.5 0.4 2.5 0.4z"/> <path class="st18" d="m240.7 78s5.2-7.4 3.8-28.5c0 0 0.2 18.9-5.7 27.6-0.6 0.9 1.9 0.9 1.9 0.9z"/> <path class="st18" d="m239.3 78s3.4-13.6 1.6-26.1c0 0-0.2 19.7-3.7 25.6-0.2 0.2 2.1 0.5 2.1 0.5z"/> <path class="st18" d="m236.2 77.6s4.2-6.4 1.8-28.6c0 0 1 19.2-3.4 28.3l1.6 0.3z"/> <path class="st18" d="m229 76.4s-2.3-14.1 0.4-26.7c0 0-1.2 19.5 1.3 26.8l-1.7-0.1z"/> <path class="st18" d="m232.2 77.1s-4.4-7.6 0.1-28.3c0 0-3.6 18.8 1.5 28 0.3 0.6-1.6 0.3-1.6 0.3z"/> <path class="st18" d="m225.7 76.2s-3.8-11.5-3.6-22.7c0 0 2.1 17 5.3 22.8l-1.7-0.1z"/> <path class="st18" d="m228.3 76.5s-4.1-4.2-2.9-21.5c0-0.3-0.3 14.9 5.6 21.7 0.7 0.8-2.7-0.2-2.7-0.2z"/> <path class="st18" d="m223.1 75.9s-4.1-7.9-5.5-16.4c0 0 3.9 12.5 7.1 16.4h-1.6z"/> <path class="st18" d="m225.9 76.2s-4.1-3.2-6.3-17.1c0 0 2.7 12 7.4 17.1h-1.1z"/> <path class="st18" d="m252.7 79.4s6.4-5.4 8.5-12.5c0 0-6.4 9-10.3 11.9-0.9 0.6 1.8 0.6 1.8 0.6z"/> <path class="st18" d="m255.3 79.9s5.9-4.2 7.8-10.1c0 0-5.3 8-9.5 9.8l1.7 0.3z"/> <path class="st18" d="m234.3 77.3s1.3-27.2 2.5-29.4c0 0-0.5 0-1.2 3.8s-3.3 23-2.1 25.4l0.8 0.2z"/> <path class="st18" d="m220.9 75.9s-5.5-7.7-8.3-16.8c0 0 6.2 13.1 10.3 16.8h-2z"/> <path class="st18" d="m224.1 76s-4.7-2.5-9.4-17.5c0 0 4.9 12.8 10.8 17.5h-1.4z"/> <path class="st19" d="m277.7 93.1c-1.9 0.1-3.8 0.1-5.8 0.2-3.2 0-6.3 0-9.2-0.2-3.3 0.1-6.8 0.1-10.4 0-3.7-0.1-7.2-0.3-10.6-0.6 1 1.1 7.9 8.6 17 7.4 2.2-0.3 4-1 5.5-1.8-2.1 2.9 3.8 4 7.1 2.3 3.3 1 9 2.4 16.1 1.5 10.7-1.4 17.7-7 20.4-9.5-1.3-0.8-8.3-4.5-16.3-1.8-3.9 1.3-6.6 3.6-7.9 5.1-2.1-0.9-4-1.8-5.9-2.6z"/> <path class="st20" d="m128.1 205.3c-2.6-2 1.5-4.3 6.7-2.7 4.2-1.6 10.4-0.6 16.7 1.4 4.4-0.3 6.5 3.1 11 2 14.8 3 29.5 5.3 43.3 5.9 0.9 0.2 1.9 0.5 2.8 0.7-0.6-2.9-9.5-3.6-14.5-4.6-12.6-1.6-25.7-5.5-37.9-6.5-1.2-0.2-5.2-1.9-5.9-2.5 1.9-4.3 13.8 0 20.5 0.6 9.9 2.2 19.4 3.5 29.5 5.3 6.1-3 14 3.8 21.7 3.1 14.2 4.6 29.5 5.6 43.2 5.8 1.3 0.5 2.1 0.9 3.3 1.5 2.9 4.7-12 2.8-18.8 1.9-7.5-0.4-14.9-1.9-22.6-3 5.3 4.4 17.1 5.9 26 8.8 11.7 3.5 22.1 4.4 34.2 7.1 4.7 1.5-1 3.6 5.6 4.4 7.3 2 2 5.4-4.1 4.1-15.6-1-31.4-3.1-47.8-6.3 16.3 7.3 39.3 11.7 58.8 12.5 6.2 1.2 13.1 2.8 13 3.8-0.2 1.4-14.9 1-21.5 0.6-14.1-0.8-34.3-3.8-59.3-13.8-5.4-0.6-5.3-2.9-10.6-3.2-5.5-1.6-15.8-5.1-7.3-6.5-1-1.2 1.2-1.9 1.2-3.1-17.5-0.9-36-2.1-54.7-7-11.6-2.5-23.4-6.4-32.5-10.3z"/> <path class="st21" d="m143.9 206.5c20.2 3.6 40.1 8.1 59.3 9.4 1.2 0.2 2.8 0.4 4 0.6 0.2 0.5 0.9 1.1 1.1 1.5-20.8-1.7-44.1-3.9-64.4-11.5z"/> <path class="st21" d="m190.5 219.2c20.2 3.6 40.1 8.1 59.3 9.4 1.2 0.2 2.8 0.4 4 0.6 0.2 0.5 0.9 1.1 1.1 1.5-20.8-1.7-44.1-3.9-64.4-11.5z"/> <path class="st21" d="m209.9 220.3c20.2 3.6 40.1 8.1 59.3 9.4 1.2 0.2 2.8 0.4 4 0.6 0.2 0.5 0.9 1.1 1.1 1.5-20.9-1.8-44.1-3.9-64.4-11.5z"/> <path class="st21" d="m159.2 199.1c20.2 3.6 40.1 8.1 59.3 9.4 1.2 0.2 2.8 0.4 4 0.6 0.2 0.5 0.9 1.1 1.1 1.5-20.9-1.8-44.1-3.9-64.4-11.5z"/> <path class="st22" d="m294.1 91.5c-2.9-0.4-8.8 2.6-8.8 7.5 1 4.6 4.3 6.7 7.9 7.8 4.7 1.5 8.5 2.3 10.3 2.3 26.6-0.3 50.6 1.9 50.8-1.4 0.1-1-5.1-2.9-15.4-6.7-9.7-3.5-14.6-5.3-20.4-6.7-5.8-1.3-14.1-2.7-24.4-2.8z"/> <path class="st23" d="m267.6 135.8c-1.7 0.1-3.4 0.1-5.1 0.2 1.8 1.9 3.7 3.7 5.5 5.6 0.3 3.6 1.5 4.3 3 3.8 0.6 1.9 1.8-1.9 2.2 1.1 3.1 0.9 5.9 2.9 8.3 6.7h0.3c1.5 0 2.8-0.3 4-0.9-1.1 2-3 3.2-4.8 3-1-0.1-1.8-0.6-2.2-0.9-2.4-2.1-5.4-1.3-7.6-4.1-0.2-0.1-1.3 0.8-1.5 1.4-0.8 6.4 2.2 4.6 3.4 6.1 2.1 0.3 3.9 1.8 5.9 2.9 0.2 6 3.1-0.3 4.2 3.1 3.4-1.3 6 2.5 8.2 6.8 0.3-0.3 0.6-0.6 0.9-0.8 1.6-5.2-1.2-7.7-2.5-8.7-1.3-2-2.8-2.5-4.3-3.5 0.7-1.4 1.4-2.1 2.1-2.4 1.4-0.6 2.6-0.5 4.2-0.5 1.5 0 3.5-0.1 6.1-0.7 4.9 1.7 6.1 1.6 6.3 1.3 0.6-1.1-6.9-5.4-6.3-6.8 0.4-0.8 4 0.1 6 0.8 3.2 1.1 5.6 2.8 7 4-0.6-4.2-2.2-6.3-3.5-7.5-2.5-2.2-5.1-1.9-10.5-4.6-2.1-1.1-3.8-2.1-4.8-2.8 1.7-1.3 3.4-2 4.8-2.3 7.6-1.9 16.6 3.1 23.5 12.2-0.8-2.4-1.7-4.8-2.5-7.3-3.8-2.9-7.5-5.8-11.3-8.8-2.4-0.8-5.3-1.6-8.7-2.1-1.9-0.3-3.7-0.4-5.3-0.4-4.4-1.7-5.8-1.7-6-1.3-0.4 0.8 3 3.7 2.9 3.8 0 0-0.2-0.2-0.5-0.4-8.3-0.9-10.3-0.7-10.4-0.4-0.1 0.5 2.6 1 5.3 3.5 1.1 1.1 1.9 2.2 2.4 3-0.1 0.7-0.3 1.4-0.3 2.2s-0.1 1.6-0.2 2.4c-3-4.6-6.2-9.3-10.3-9-1.4-0.6-3.3-1.2-5.5-1.6-3.6-0.6-6.7-0.2-8.8 0.3 2 1.1 4.2 2.4 6.4 3.6z"/> <path class="st21" d="m270.5 139.5c4.1 2 8.3 2.7 11.6 7.5 0.2 0.1 0.5 0.4 0.8 0.6 0.1-0.6 0.4-1.1 0.5-1.7-3.7-4.7-7.9-9.7-12.9-6.4z"/> <path class="st21" d="m280.9 138.3c4.1 2 8.3 2.7 11.6 7.5 0.2 0.2 0.5 0.4 0.8 0.6 0.2-0.6 0.4-1.1 0.5-1.7-3.7-4.7-7.8-9.7-12.9-6.4z"/> <path class="st21" d="m284.2 143.4c4.1 2 8.3 2.7 11.6 7.5 0.2 0.1 0.5 0.4 0.8 0.6 0.1-0.6 0.4-1.1 0.5-1.7-3.6-4.7-7.8-9.7-12.9-6.4z"/> <path class="st21" d="m271.1 154.5c4.1 2 8.3 2.7 11.6 7.5 0.2 0.2 0.5 0.4 0.8 0.6 0.1-0.6 0.4-1.1 0.5-1.7-3.7-4.7-7.9-9.7-12.9-6.4z"/> <path class="st24" d="m323.3 117.2s6.1-17.9 5.8-36.9c0 0-3.9 29.6-9 35.6-0.4 0.5 3.2 1.3 3.2 1.3z"/> <path class="st24" d="m320.6 116.5s6.3-7.5 6.7-40.7c0 0-2.6 27.5-8.5 40-0.2 0.4 1.8 0.7 1.8 0.7z"/> <path class="st24" d="m318.7 116.5s6.2-26.5 5.8-53.7c0 0-3.2 38.6-7.8 49.8-1.5 3.8 2 3.9 2 3.9z"/> <path class="st24" d="m313.8 116.2s6.3-12 6.6-59.8c0 0-2 43-8.9 58.8-0.4 0.9 2.3 1 2.3 1z"/> <path class="st24" d="m316.8 116.4s2.8-33.8-0.1-61.9c0 0 1.3 47.8-3 60.7-0.4 1 3.1 1.2 3.1 1.2z"/> <path class="st24" d="m312 115.9s5.3-15.7 0.3-61.9c0 0 3 41.2-2.8 59.8-0.5 1.8 2.5 2.1 2.5 2.1z"/> <path class="st24" d="m310.1 115.8s2.1-29.4-1.9-56.8c0 0 2.7 42.9-0.7 55.4-0.2 0.6 2.6 1.4 2.6 1.4z"/> <path class="st24" d="m307.4 114.9s4.1-13.6-2.1-62.1c0 0 4.1 42 0.1 61.3l2 0.8z"/> <path class="st24" d="m298.4 108.8s-5-31-3.5-58.2c0 0 1.5 42.5 5.6 58.5l-2.1-0.3z"/> <path class="st24" d="m302.9 114.1s-6.5-17-4.1-61.7c0 0-1.6 40.8 6 61.2 0.6 1.4-1.9 0.5-1.9 0.5z"/> <path class="st24" d="m294.3 108.1s-6.4-25.3-7.8-49.9c0 0 5.1 37.3 9.9 50.2l-2.1-0.3z"/> <path class="st24" d="m298.5 112.3s-5.6-9.5-6.7-47.1c0-0.6 1.9 32.5 10 47.7 0.9 1.8-3.3-0.6-3.3-0.6z"/> <path class="st24" d="m291.2 107.4s-6.2-17.6-9.1-36.2c0 0 6.6 27.5 11 36.3l-1.9-0.1z"/> <path class="st24" d="m296.2 112.2s-5.4-7.2-10.2-37.9c0 0 5 26.3 11.6 37.9h-1.4z"/> <path class="st24" d="m326.3 116s7-11.2 8.5-26.5c0 0-6.5 19-10.8 25-1 1.3 2.3 1.5 2.3 1.5z"/> <path class="st24" d="m304.9 111.4s-2.5-59.1-1.3-63.8c0 0-0.6 0-0.9 8.1s-0.6 49.9 1.3 55.3l0.9 0.4z"/> <path class="st24" d="m290.2 109.6s-7.8-17.3-12.7-37.5c0 0 9.5 29 15 37.5h-2.3z"/> <path class="st24" d="m294 111.1s-6.1-5.8-14.1-39c0 0 7.9 28.3 15.7 39.1l-1.6-0.1z"/> <path class="st25" d="m59.5 117c-0.7 0.2-4-0.5-4.5-0.8 7.3 10.6 13.4 21 25.3 27 1.2 2.7 2.7 4.3 3.9 5.2 1.6 1.4 2 1 4.3 2.8 2.4 1.9 3.1 3.2 4.8 3.3 1 0 1.9-0.4 2.4-0.8-1.8-0.7-8.4-3.7-10.5-10.5-0.4-1.4-0.6-2.7-0.7-3.8-2.2-0.3-4.6-0.9-7.1-2-11.7-5.2-16.5-16.7-17.9-20.4z"/> <path class="st25" d="m268.2 199.2c-0.5 0.5-3.7 1.6-4.2 1.6 11.7 5.3 22.3 11.2 35.6 10.1 5.3 3.7 12.2-0.5 17 5.3 1.1-0.5 2.1-0.5 3.2-1.1-16.5-7.9-35.1-7.4-51.6-15.9z"/> <path class="st25" d="m269.3 217.2c-0.6 0.4-4 1.3-4.6 1.3 12.5 4.4 23.9 9.3 38.2 8.4 5.7 3.1 13.1-0.4 18.2 4.4 1.1-0.4 2.3-0.4 3.4-0.9-17.5-6.5-37.5-6.1-55.2-13.2z"/> <path class="st25" d="m67.3 42.6c-2.7-1.1-5.3-2.1-8-3.2-6 0.6-12 1.1-18 1.7 12.3 3.3 25.6 6.4 39.9 8.8 6.3 1.1 12.4 1.9 18.4 2.7 2 0 5.2 0.3 8.7 1.9 1.9 0.8 3.4 1.8 4.5 2.7 1.6 0 3.4 0 5.4 0.2 2.1 0.2 4 0.6 5.7 1-13.5-6.5-23.2-8.6-29.9-9.3-2.5-0.3-9.4-0.8-18.2-3.4-3.7-1.2-6.6-2.3-8.5-3.1z"/> <path class="st26" d="m284.3 175.4c-0.5 1.7 0.4 5.3 1.4 4.8 0.9 2.9 2.2 3.3 3.5 2.5 0.9 1.4 1.4-2 2.3 0.4 3.1 0.1 6.2 1.1 9.2 3.8 0.2 0 0.4-0.1 0.6-0.1-0.1 3.2-2 1.9-3.1 1.7-2.7-1.2-5.4 0.1-8-1.8-0.3-0.1-1.1 0.9-1.2 1.5 0.4 5.4 2.9 3.4 4.4 4.3 2.1-0.2 4.1 0.7 6.2 1.1 1.3 4.9 2.9-0.9 4.6 1.7 3-1.8 6.2 0.8 9.1 3.9 0.3-0.3 0.4-0.6 0.7-0.9 0.6-4.7-2.6-6.1-4-6.7-1.6-1.4-3.2-1.5-4.8-2 1.1-3.8 3.6-2.7 5.5-3.7 2.5-1.2 4.7 0.3 7.2 0.2 1-0.6-0.2-4.4 1.2-3.7 1.5-0.5 0.4-5.7-0.9-5.7-3.3-2.7-6.6-4.1-10.1-4.5 3.4-4.5 8.3-3.8 12.4 0 2-1.5-0.4-7.2-1.8-7.1-4.1-1.4-8.9-1.3-12.5 1.4-1.1-0.6-1.1 2.1-2.2 1-1.1 0.5-3.3 2-1.5 5.7-0.2 1.1 0.3 2.5 0.3 3.9-3.7-3.2-7.6-6.4-11.6-5.3-2.5-0.3-4.9 1.3-6.9 3.6z"/> <path class="st21" d="m287.7 177.9c4.3 0.8 8.5 0.5 12.5 3.8 0.3 0.1 0.6 0.3 0.8 0.3 0-0.5 0.2-1 0.2-1.5-4.3-3.2-9.2-6.4-13.5-2.6z"/> <path class="st21" d="m297.5 174.7c4.3 0.8 8.5 0.5 12.5 3.8 0.3 0.1 0.6 0.3 0.8 0.3 0-0.5 0.2-1 0.2-1.5-4.3-3.2-9.2-6.4-13.5-2.6z"/> <path class="st21" d="m301.6 178.2c4.3 0.8 8.5 0.5 12.5 3.8 0.3 0.1 0.6 0.3 0.8 0.3 0-0.5 0.2-1 0.2-1.5-4.3-3.1-9.2-6.4-13.5-2.6z"/> <path class="st21" d="m291 190.2c4.3 0.8 8.5 0.5 12.5 3.8 0.3 0.1 0.6 0.3 0.8 0.3 0-0.5 0.2-1 0.2-1.5-4.3-3.1-9.2-6.4-13.5-2.6z"/> <path class="st27" d="m19.5 138.6c1.5 2.1 3 4.4 4.6 6.7 0.9 1.4 1.9 2.9 2.8 4.3 1.1 0.9 2.5 2 4.3 3 2.2 1.2 4.3 1.9 5.9 2.3 0.7 0.9 1.5 1.9 2.5 2.9 1.6 1.7 3.3 3 4.7 4.1h0.8c-1 3.4-2.9 1.5-4.2 1.1-2.9-1.9-6.6-1.2-9.3-3.8-0.7 0.2-1.9 0.5-3.4 0.2-3.2-0.7-4.6-3.4-4.8-3.7 0.5 1.7 2.1 6.3 7 9 1.2 0.7 2.4 1.2 3.5 1.5 2.6 0.3 4.8 1.7 7.3 2.7 0.3 5.5 3.8-0.3 5.1 2.9 4.1-1.2 7.4 2.3 10.1 6.3 1 0.8 2.2 1.7 3.6 2.4 5.6 2.9 11.3 2.6 14.1 2.3-4.8-1.8-10.9-4.8-16.4-10-1.3-1.2-2.4-2.4-3.3-3.6-1.6-1.9-3.4-2.3-5.3-3.3 2.3-3.8 5.1-2 7.7-2.7 3.3-0.7 5.6 1.4 8.7 1.9 0.3-0.3 1.9-1.6 1.9-3.8 0-1.9-1.2-3.7-3.2-4.7 4.6 2.2 9.1 4.3 13.7 6.5-3.2-2.7-6.4-5.3-9.5-8-3.3-3.6-7-6-11.1-7.1 5.4-4 11.1-2.1 15.1 2.9 2.8-1.1 1.4-7.7-0.3-8-4.6-2.5-10.5-3.4-15.6-1.4-1.2-0.9-1.9 1.9-3 0.6-1.5 0.2-4.6 1.3-3.4 5.7-0.6 1.2-0.4 2.8-0.7 4.2-2.5-1.5-5-3.1-7.6-4.8-1.8-1.2-3.5-2.4-5.1-3.5-2.3-0.1-5.4-0.3-8.9-1.3-3.6-1.3-6.4-2.7-8.3-3.8z"/> <path class="st21" d="m30.7 149.1c5 1.8 10.2 2.5 14.3 6.9 0.3 0.1 0.6 0.4 0.9 0.6 0.2-0.5 0.5-1 0.7-1.6-4.5-4.4-9.7-9-15.9-5.9z"/> <path class="st21" d="m43.5 147.9c5 1.8 10.2 2.5 14.3 6.9 0.3 0.1 0.6 0.4 0.9 0.5 0.2-0.5 0.5-1 0.7-1.6-4.5-4.2-9.7-8.8-15.9-5.8z"/> <path class="st21" d="m47.6 152.7c5 1.8 10.2 2.5 14.3 6.9 0.3 0.1 0.6 0.4 0.9 0.6 0.2-0.5 0.5-1 0.7-1.6-4.6-4.4-9.7-9-15.9-5.9z"/> <path class="st21" d="m31.4 163c5 1.8 10.2 2.5 14.3 6.9 0.3 0.1 0.6 0.4 0.9 0.5 0.2-0.5 0.5-1 0.7-1.6-4.5-4.3-9.7-8.9-15.9-5.8z"/> <linearGradient id="e" x1="229.36" x2="229.36" y1="94.921" y2="209.36" gradientTransform="matrix(-1 0 0 1 407.81 0)" gradientUnits="userSpaceOnUse"> <stop stop-color="#DF77AF" offset=".082051"/> <stop stop-color="#DD74AA" offset=".2018"/> <stop stop-color="#D76D9F" offset=".3258"/> <stop stop-color="#CF618E" offset=".4519"/> <stop stop-color="#C5517B" offset=".5794"/> <stop stop-color="#B93C64" offset=".7066"/> <stop stop-color="#B02A54" offset=".7923"/> <stop stop-color="#AA1D4A" offset=".8436"/> </linearGradient> <path class="st28" d="m263.1 141.2c14.1 8.6 22 22.9 20 36.3-2.7 18.1-22.1 26.3-27.3 28.5-13.4 5.6-26.9 3.5-53.9-0.7-12.4-1.9-27.1-4.3-45.5-11.2-13.2-4.9-24.1-8.9-35.5-17.2-6.7-4.9-11.2-9.6-19.7-18.6-1.9-2-5.6-6.2-13-14.8-10.9-12.5-12.1-14.2-13.2-17.4-0.5-1.5-3.8-11.8 1.3-20 5-8.1 15.4-9.9 19.7-10.7 31.7-5.6 156.7 41.9 167.1 45.8z"/> <linearGradient id="d" x1="232.35" x2="232.35" y1="93.397" y2="196.37" gradientTransform="matrix(-1 0 0 1 407.81 0)" gradientUnits="userSpaceOnUse"> <stop stop-color="#F49AC1" offset=".1103"/> <stop stop-color="#F27898" offset=".2587"/> <stop stop-color="#F0587B" offset=".4095"/> <stop stop-color="#EF3A68" offset=".5504"/> <stop stop-color="#EE215E" offset=".6763"/> <stop stop-color="#ED145B" offset=".7744"/> </linearGradient> <path class="st29" d="m106.9 93.4c-14.2 0.7-25.6 6.5-28.5 15.2-2.6 8 2.7 16 8.6 24.8 2.1 3.1 9.1 13.2 27.4 26.5 17.6 12.9 33.5 19.8 40.9 22.8 4.6 1.9 18.7 7.3 38 10.8 19.4 3.5 33.5 3.2 43.4 2.2 9-0.9 17.1-2.7 24.6-8 2.6-1.9 6.1-4.4 8.6-8.9 5.5-9.6 3.6-21.9-2-29.8-4.7-6.6-11.5-9.4-14.6-10.6-54-21.1-81.4-31.8-98.2-35.6-11.7-2.8-28.2-6.2-48.2-9.4z"/> <path class="st30" d="m252.5 161.9s4.6-17.5-0.3-22.3-13.5-6.6-19.8-9c-6.2-2.4-24.9-10.1-28.9-12.2-4.1-2.1-35.5-12.5-40.1-13.5-4.6-1.1-37.6-6.9-41.4-8 0 0-10.4-1.6-23.5 1.6-1.6 0.4-4 1.1-6.4 3-4.4 3.7-5.1 9.2-5.4 11-1.2 8.4 4.9 17.6 14.2 26.8 19.6 19.4 42.2 27.6 51.6 30.6 16.4 5.3 10.8 1.1 49.3 8.2 10 1.9 35.4 5.1 40 1.1 4.7-4 10.7-17.3 10.7-17.3z"/> <linearGradient id="c" x1="212.61" x2="253.92" y1="105.5" y2="177.05" gradientTransform="matrix(-1 0 0 1 407.81 0)" gradientUnits="userSpaceOnUse"> <stop stop-color="#F49AC1" offset=".3256"/> <stop stop-color="#F498BE" offset=".4852"/> <stop stop-color="#F491B4" offset=".5884"/> <stop stop-color="#F385A7" offset=".6757"/> <stop stop-color="#F27595" offset=".7541"/> <stop stop-color="#F05D7F" offset=".8265"/> <stop stop-color="#EE3967" offset=".8936"/> <stop stop-color="#ED145B" offset=".9282"/> </linearGradient> <path class="st31" d="m104.4 97.3c-1.6 0.2-6.5 1-10 5.2 0 0-2.7 3.2-3.4 7.9-0.6 4.4 0.4 12.7 13.8 25.8 12.1 11.9 24 17.5 44.4 27.1 16.7 7.9 25.5 10.3 29.8 11.4 10.6 2.7 18.9 3.5 25 4 13.3 1.2 20 1.8 27.3-0.4 5.4-1.7 18.5-5.5 21.3-16.4 2.7-10.6-6.6-20.1-7.6-21.1-20.6-12.8-39.3-20.9-53.6-26.1-9.2-3.4-26.3-7.9-41.1-11.7-4.5-1.1-8.2-2.1-10.7-2.7 0.2-0.9 0.4-1.8 0.6-2.6 6.5 0.9 15.9 2.5 27 6 3.3 1 5.9 2 8.2 2.8 26.8 9.8 30.7 13.2 48 20.2 27.4 11.1 31.9 11.8 37 18.6 1.4 1.9 9.1 12.3 5.9 22.8-4 13.2-22.7 17.5-33.7 20.1-24.4 5.7-45.7-0.5-56.4-3.6-9.5-2.7-17.1-6.1-20.7-7.7-3.2-1.4-12.8-5.8-25.2-13.6-12.5-7.9-21-13.3-29.9-23.1-5.5-6.1-16.9-18.9-14.4-30.6 0.2-1 0.8-3.8 3-6.4 5.1-6.2 13.7-6 15.4-5.9z"/> <path class="st32" d="m239 169.4c0.8-1 7.5-9.9 4.1-16.5-1.3-2.5-3.7-3.8-7.4-5.8-4.8-2.6-7.8-3.2-13.7-5.1-8.8-2.8-15.8-5.8-22.5-8.7-3.9-1.7-6-2.7-7.7-3.4-13.2-5.9-23.5-6.6-34.6-9.2-24.3-5.8-37.9-17.8-51.4-15.3-5 0.9-6.6 3.2-7 3.8-2.4 3.9 0.2 9.4 1.4 11.9 3.4 6.9 8.9 12 25.2 22 12.7 7.8 19.1 11.6 29 15.7 10.4 4.3 18.1 6.1 30 9 15 3.6 22.7 5.4 33.3 5.1 9.1-0.4 16.4-2.1 21.3-3.5z"/> <path class="st33" d="m133.4 126.7 15.3 0.5s4.9 9.8 7.5 11.4 2.8-20.7 0.9-22-8.3-2.1-8.3-2.1l-10-0.3-12.5 0.4-1.6 6.8 8.7 5.3z"/> <path class="st34" d="m200.6 138.5 17.2 1.2 13.7 2.5c0.6 0.5 3.5 3.1 4 7.5 0.5 4.9-2.4 8.3-2.8 8.8-3.1 4.9-6.1 9.9-9.2 14.8l-6.2-0.1-22.3-26.9 5.6-7.8z"/> <path class="st35" d="m130.6 114.7s21.7-0.6 24.3 1.4 19.9 27.7 19.8 29.4-3.8 5.5-7 3.8-18.2-17.9-17.9-22.7 1.5-6.4-0.5-5.5c-2 1 0.2 4.6-2 4.8-2.1 0.1-13.6-0.3-15.2-0.6-1.7-0.3-1.5 0.6-0.2 1.3 1.4 0.7 13.7 1.4 15.1 1s11.2 18.1 19.6 22.4c0 0 4.2 1.4 5.7 0.7s3.5-3.1 3.5-4.6c0-1.6-6.6-12.9-8-14.6s-9.7-15.7-11.5-16.7-23.7-1.7-24.9-1.3-2.1 1.3-2.1 1.3l1.3-0.1z"/> <path class="st33" d="m126.9 122.1s18.7 9.2 20 15-6.2 15.3-6.2 15.3l-11-6.3 1.8-7.3s-6.6 0.3-14.8-4.9c-8.1-5.2-7.3-6.5-7.3-6.5s8.7-9.6 17.5-5.3z"/> <path class="st36" d="m126.9 118 1.5 4.4s-7.3-2.4-11.9 0.9-5.3 5.3-5.3 5.3-1.4-0.1-3-1c-2.8-1.6-3.9-4.3-4.5-5.9-1.6-4.3-0.8-8.3-0.3-10.2 1 1 1.9 2 2.9 3 1.8 0.7 4.4 1.5 7.5 1.9 3.5 0.4 6.5 0 8.5-0.4 1.6 0.7 3.1 1.4 4.6 2z"/> <path class="st37" d="m137.9 71.5s0.5 0.5 1.1-0.3c0.7-1.1 2.2-1.1 2.9-2.4 0.5-1 0.2-2 0-2.6 0 0-0.3-1.2-1.3-2.3-2.2-2.4-10.2-3.6-15.5 0.4-1 0.8-1.8 2.2-2.9 4-0.3 0.5-0.5 4.8 2.3 6 2.9 1.2 13.4-2.8 13.4-2.8z"/> <path class="st38" d="m125.8 72s-1 1-2.1 3c-1.2 2-6.3 6.7-5.1 7.7s9.9 0.7 9.9 0.7l1.8-3.8-3.5-7.4-1-0.2z"/> <path class="st39" d="m138.3 67c0.7 0.5 1 1.5 0.7 2.3 0.3 0.9 0.2 1.4 0 1.8-0.3 0.5-0.7 0.6-1.1 1.2-0.4 0.5-0.5 1.1-0.6 1.5-0.3 0.8-0.6 1.5-0.9 2.3-0.3 0.6-0.7 1.2-1.1 1.8-0.7 1-1.5 1.9-2.2 2.8-0.5 0.2-1.4 0.4-2.4 0.1-0.1 0-0.4-0.1-0.7-0.3-1-0.5-2.5-1.9-3-4-0.5-1.9-0.1-3.7-0.3-3.7s-0.4 1.8-0.7 1.8c-0.2 0-0.4-1.1-0.7-2.4v-0.1c0-0.4-0.1-2.4 0.2-2.8s1-1.8 1.4-1.3 2.9-1.2 3-1.6c0.2-0.3 2.1-1.6 2.6-1.4 0.5 0.1 3.2 2.3 3.2 2.3 0.6-0.8 1.8-0.9 2.6-0.3z"/> <path class="st38" d="m138.4 71.8c-0.3 1-0.7 1.3-0.9 1.3-0.4 0-0.6-0.8-1.2-0.9-0.5-0.1-1 0.3-1.2 0.7-0.3 0.5-0.2 1.2-0.1 2.2 0.1 0.8 0.2 0.9 0.1 1.1-0.2 0.3-0.9 0.5-3.2 0 0.6-0.3 1.2-0.5 1.8-0.8 0-1.2 0.1-2.3 0.1-3.5-0.6-0.4-1.5-0.9-2.8-1.2-0.9-0.2-1.6-0.1-2.2-0.1 1.9-1.1 3.1-1.1 3.8-0.8 1.1 0.3 1.5 1.2 2.8 1.2 0.6 0 1.1-0.2 1.8 0 0.6 0.2 1 0.5 1.2 0.8z"/> <path class="st34" d="m209.8 108.1c2.6-0.9 4.9-1.4 6.5-1.7 3-0.6 5.8-1.1 9.3-0.9 2.1 0.2 3.2 0.3 4.4 0.8 3.3 1.4 4 4 6.5 4 1.2 0 2.7-0.6 2.7-1.3 0-0.2-0.1-0.4-0.4-0.7-1.5-1.2-4.7-1.5-5.8-1.5-1.1-1-3.5-2.9-7-3.5-3-0.5-5.4 0.1-7.9 0.9-2 0.5-5 1.6-8.3 3.9z"/> <path class="st40" d="m125.9 75.5-2.3 2s-1.5 1 3.5 1.3l2.9 3.8 6 1.9 2.6 5-0.2 13.5-5.5 14.4-11.6-1.4-6.7 0.1-7.1-3-4.5-2.8s4.5-28.3 6.6-30.5c2.2-2.3 11.2-5.7 11.2-5.7l4.5-0.3 0.6 1.7z"/> <path class="st41" d="m132.2 80.8c2.5 0.7 4.5 4.2 4.5 4.2 1.4 2.4 3.2 5.5 3.5 10.1 0.1 2-0.1 3.1-1.7 9.7-2.2 8.9-1.6 12.3-4.5 13.6-1.4 0.6-3.3 0.3-7-0.3-2.2-0.4-2.4-0.6-4.5-1-3.3-0.5-3.8 0-7.5-0.3-3.3-0.2-6-0.5-8.5-2.2-0.4-0.3-1.9-1.4-2.9-3-3.6-5.9 3.7-11.7 4.8-24.6 0.1-1.4 0.3-4.3 2-7.3 0.5-0.9 2-3.2 4.8-4.9s6.1-2.2 8-1.6c0.3 0.1 1.2 0.4 1.2 0.7 0 0.2-0.9 0.3-1.3 0.4-1.4 0-4.7 0.2-7.8 2.5-2.3 1.7-3.4 3.8-4.2 5.3-1.7 3.3-1.1 4.5-2.4 10-0.8 3.5-1.2 3.5-3.2 10.8-1.2 4.4-1.6 6.2-0.6 8 0.9 1.6 2.5 2.4 4.3 3.2 0.8 0.4 2.9 1.3 7 1.6 3.3 0.2 4.2-0.5 7.6-0.3 2.7 0.2 8.1 1.4 9.4 0.6s7.5-20.4 3.9-27.6c-1-2.1-1.9-3.7-4.8-4.1-2.9-0.5-4-2.6-4.9-3.9s-5.4-1-4.7-2.7 2.1-2.4 3.2-2.1 1.6 1.8 0.5 1.8-3.1 0.6-1.8 0.9c2.4 0.5 2.8 0.4 3.6 0.9 0.7 0.4 0.8 1 1.8 1.5 0.2 0.1 0.5 0.2 0.7 0.3 0.7-0.1 1.2-0.3 1.5-0.2z"/> <polygon class="st33" points="181 162.5 192.1 166.2 201.6 167 199.1 170.2 216.7 172.9 222.1 160.1 218.6 150.8 200.7 146.9 189.1 147.6 178.4 155.8"/> <path class="st42" d="m210 93.5s-2.6 7.4-2.4 8.4c0.1 0.9 2.3 6.2 2.3 6.2l-6.8 3.5s-11.1-4.7-11.1-5.7c0-1.1 4.6-8.9 5.9-10 1.4-1.1 6.2-2.7 6.2-2.7l5.9 0.3z"/> <path class="st43" d="m182.3 155.5c-1.1 1.4-1.5 2.6-1.7 3.5-0.2 1.2 0 2.1-0.5 4.1-0.1 0.6-0.3 1.1-0.4 1.4-3.1-0.4-6.1-0.9-9.2-1.3-2.6-2-5.2-4-7.8-6.1l-0.3-6.9c4.1 1 8.1 2 12.2 3.1 2.6 0.7 5.2 1.4 7.7 2.2z"/> <path class="st44" d="m122.4 75.8c-1.1 0.2-2.7 0.5-4.5 1.1-1.7 0.6-2.6 0.9-3.3 1.5-1.9 1.5-1.9 3.5-3.7 10.8-0.3 1.3-0.6 2.3-0.8 3-0.7 1.2-1.4 2.9-1.9 4.9-0.5 1.8-0.7 3.4-0.7 4.8-0.6 2.7-1.1 5.5-1.7 8.2 0.6 0.8 1.2 1.6 1.8 2.4 2.1 1 6 2.6 11.2 2.7 4.3 0.1 7.7-1 9.7-1.7 2.4-1.7 8.5-1.9 5.7-6.6-2.2-2.4 2.6-4.3-0.2-6.7 0.8-0.2 2.3-0.7 3.1-2 0.7-1.3 0.4-2.6 0-4.6-0.3-1.6-0.9-2.9-1.3-3.7-1.4-1.8-2.7-3.1-3.7-3.8-3-2.4-7.8-4.9-8.1-5-1.9-1-3.1-1.5-3.2-2.5-0.2-1.3 0.8-2.2 1.6-2.8z"/> <path class="st35" d="m182.4 162.2s18.9 4 21.2 3.5c2.3-0.6-5.2 7.1-4.2 8.6 1.1 1.5-4.4 0.7-4.4 0.7s2-6 3.6-6.7-16.7-0.8-17.8-4c-1.2-3.1 1.6-2.1 1.6-2.1z"/> <path class="st45" d="m130.3 96.6c-0.1-1-0.7-6.5-5.6-10-2.9-2.1-5.9-2.5-7.3-2.7l-2.3 1.3c-0.8 1.8-1.6 3.6-2.4 5.3-0.1 1.1-0.2 2.5 0 4 0.1 1.3 0.4 2.4 0.6 3.3 1.4 1.4 2.7 2.8 4.1 4.2 0.6-0.6 1.3-1.2 2.1-1.8 3.9-2.9 8.2-3.5 10.8-3.6z"/> <path class="st46" d="m190.6 106.1s4.6-11.2 9.4-12.8 11.5-0.8 11.5-0.8-6.2 10.3 0.2 15.2c0 0-5.9 4.4-8.5 4.3s-8.8-2.9-9.2-4c-0.3-1.2 1.2-1.7 1.8-1.2 0.6 0.6 6.6 4.1 8.2 3.6s5.1-2.8 5.1-2.8-2.8-4.5-2.4-5.9c0.5-1.5 2.3-7.9 2.3-7.9s-9.1 0.2-10.3 2.1-5.4 7.6-5.2 9c0.2 1.5-3.2 2.1-2.9 1.2z"/> <path class="st47" d="m160.3 151c0.2 3.2 1.2 5.5 2 6.8 3.5 5.7 11.1 8.5 19.4 7.5-0.4-0.7-1.7-3.7-0.4-6 0.5-0.9 1.5-2.2 2.9-2.9 1-0.5 1.6-0.8 1.6-1.1-0.1-0.4-1.5-0.6-2.8-0.2-2.2 0.6-3.2 2.8-3.2 2.9-0.7 1.7-0.7 3.2-0.6 3.9s0.2 1.3 0.3 1.8c-1.6-0.3-2.9-0.6-4-0.8-4.2-0.9-4.8-1-5.8-1.5-2.1-1-3.3-2.2-4-2.8-1.5-1.5-2.5-2.4-2.7-3.8-0.2-1.5 0.6-2.5 0-3.2-0.6-0.8-1.8-0.7-2.7-0.6z"/> <path class="st33" d="m126.5 97.7c2.8 0.3 4.4 2.5 5.6 4.2 2.1 2.9 2.5 5.9 2.6 7.6 0 0 5.1-0.8 19.5-7.8l2.2-2.8h3.9l3.8 6-2.7 0.5-3.7-0.3-3.1 2.1-8 6.1s-3 1.7-6.4 3.2c-6.4 2.9-7.8 2.8-8.6 2.6-1.8-0.4-3.1-2-5.8-5.3s-4.1-5-4.2-6.9c-0.1-1.4 0.3-3.1-0.7-5.2-0.2-0.5-0.5-0.9-0.7-1.1 0.3-0.4 2.8-3.3 6.3-2.9z"/> <path class="st48" d="m179.5 97.8-11.8 3.1-4.2 1.8c-2.5 6.5-4.9 13-7.4 19.5-0.4 4.2-0.8 8.5-1.3 12.7l1.2 11.6 4.2 4.6s26.1 2.8 34.5-5.8 8.9-36.2 5.3-40.6c-1.1-1.3-6.4-4.4-6.4-4.4l-14.1-2.5z"/> <path class="st49" d="m176.1 100.6c-2.1 0.7-5.5 2.1-8.9 5-3.2 2.7-5.1 5.6-6.1 7.5-0.9 1.9-1.9 4.3-2.5 7.3-0.8 3.3-1 6.2-1 8.5-0.1 2.2-0.2 4.4-0.3 6.8 0 2.9 0 5.6 0.2 8.2 1.3 4.1 4.6 7.1 8.5 7.6 3.5 0.5 6.2-1.1 7-1.6 1.6-1.9 3.1-2.7 4.2-2.9 1.9-0.5 3 0.1 5-0.4 1.9-0.5 3.2-1.6 4-2.4 0.5 0.3 1.7 1 3.2 0.9 2.1-0.1 4-1.7 4.8-3.9 0.7-1.1 2.7-4.7 3.3-8.2 0.2-1.2 0.3-2.4 0.3-2.4 0.1-2 0-3.5 0-4-0.2-3.3 0.9-6 1.3-8.8 0.3-2.4 0.2-6-2-10.8 0 0.3 0.4 4.6-3.1 7.2-3 2.3-6.4 1.6-6.9 1.4-1.4-1-3.1-2-5-2.9-2.4-1.2-4.6-2.1-6.6-2.8-0.3-0.4-1.8-1.9-1.8-4.2-0.2-3.1 2.2-4.9 2.4-5.1z"/> <path class="st42" d="m170.5 112.8c4.1-0.9 8.6 2.9 10.5 6.7 1.8 3.6 1.2 7.1 0.8 8.7l-0.6 3.4-9.1-2.2-6.6 2.5-2.2-6 0.1-4c0.1-1.1 0.6-3.6 2.5-6 0.9-0.8 2.4-2.6 4.6-3.1z"/> <path class="st41" d="m130.3 96.6s-1.4-8.2-6.8-12.1c-2.4-1.7-4.4-1.7-4.9-1.7s-2.1 0.1-3.6 1.1c-1.6 1.2-2.2 2.9-2.5 4.4-0.2 0.7-0.9 3.7 0.1 7.4 1.2 4.3 4.2 6.9 5.4 7.8 0.5-0.9 1.4-2.2 2.9-3.4 2-1.6 4-2.2 4.9-2.4 1-0.3 1.8-0.3 2-0.3 1.7-0.1 2.8 0.2 2.8 0.2 0-0.1-1.8-0.8-4-0.7-0.4 0-1.7 0.1-3.7 0.7-2.7 0.9-4.7 2.4-6.2 3.8-1-0.6-2.9-2-3.8-4.3-1.9-4.8 1.1-11.6 5.6-12.4 2-0.4 4.8 0.3 6.1 2 0.4 0.6 0.8 1.3 2.2 3.4 0.6 0.8 0.7 1 1 1.4 1.4 1.8 2.1 3.8 2.5 5.1z"/> <path class="st35" d="m126.5 97.7c1.9 1.5 3.1 3 3.8 4 1.2 1.8 0.9 1.6 2 3.9 1.5 3.1 1.6 3.6 1.6 3.9 0.2 2.2-0.8 3.8-0.4 3.9 0.2 0.1 0.9-0.7 1.5-1.5 0.4-0.4 0.6-0.8 0.8-1.1 0 0 17.8-8.4 18.5-8.7 0.6-0.3 2.7-3.9 4.8-3.1s1-0.9 0-1.3-3.4 0-4.2 1.1c-1.4 1.9-3.2 2.7-3.2 2.7-1.4 1.7-5.3 4.2-16.5 7.4-0.3-2.2-1-5.7-3.6-9.1-0.8-1-1.5-1.8-2.3-2.5-1 0.1-1.9 0.2-2.8 0.4z"/> <path class="st35" d="m121.6 103.8c0.5 2.7 0.6 2.9 0.6 3.1 0.7 2.4 2.6 3.4 4.3 5.1 3.4 3.3 2.1 6.6 4.8 7.8 0.5 0.2 1.1 0.4 2.3 0.4 1.5 0 6.6-0.4 14.4-6.9 3.1-2.6 4.6-4.5 7.9-6.1 2.1-1.1 3.3-2.1 4.7-1.6 1.1 0.4 3.8 0.8 3.8-0.8s-1.7-3.9-2.7-3.8-1.8 0.4-0.8 1.1 2.4 1.6 1.6 1.9-5.2-0.9-5.9 0c-1.5 1.8-3 2.3-6.7 5.8-3.3 3.1-6.3 4.7-9.9 6.6-4.5 2.4-6.8 3.6-8.7 3.3s-2.2-1.2-10.5-11.3c-1.7-2.1-3.3-3.9-2.7-5.8 0.4-1.4 1.8-2.3 2.8-2.7 0 0.3 0.7 3.7 0.7 3.9z"/> <path class="st35" d="m127.3 123.5c0.6 0.5 17.4 10 18 13.8s-3.1 14-6.9 13.9-7.2-1.8-6.9-3.8-1.6-7.1 0.6-6.9c1.8 0.1 4.7 0.9 5 0.3 0.1-0.1-0.1-0.3-0.1-0.5-0.6-0.9-2.1-0.8-4-1-1.8-0.2-3.1-0.7-4.3-1.2-0.3-0.1-1.9-0.7-3.8-1.8-1.4-0.8-1.7-1.1-2.9-1.6-1.4-0.6-1.9-0.6-3.8-2-1.3-1-3.1-2.6-4.9-5-1.2 0.8-2.7 2.1-2.4 2.9 0.1 0.2 0.2 0.3 0.3 0.3 7.6 5.4 9 7.8 13.8 8.6 2 0.3 4.9 0.4 5 1.3 0 0.2-0.1 0.3-0.1 0.4-0.6 0.9-1.8 5.3-1.1 6.9 0.8 1.7 3.7 3.2 5.7 3.9 2 0.8 6.4 1 8-0.9 1.5-2 7.8-12.5 6-14.8s-8.6-8.4-11.2-9.6c-1.6-0.8-3.7-3.1-7.1-3.4-1.3-0.1-2.3 0.1-2.9 0.2z"/> <path class="st50" d="m140 70.3c0.3-0.4 1.4-1.9 0.9-3.3-0.6-1.5-2.7-1.9-4.5-2.2-1.5-0.3-7.3-1.3-9.7 2-1 1.4-1.1 3.2-1.1 4 0 0 0 0.9 0.6 4.6-0.5-0.5-0.9-1.1-1.4-1.6-0.2-1-0.4-2.1-0.4-3.4v-2.6c-0.7 0.4-1.5 0.8-2.2 1.2-0.7-0.8-2.1-2.4-2.1-4.6-0.1-4.7 6-7.5 6.7-7.8 4-1.7 9.9-1.7 13.5 1.9 2.7 2.6 4.5 7.5 2.5 10.2-0.8 0.8-1.8 1.3-2.8 1.6z"/> <path class="st51" d="m200 140.2c-2.9 2.5-3.9 5.5-4.3 6.8-1.6 0.1-2.1-0.3-2.3-0.6-1.1-1.5 1.9-5.4 2.4-6.1 1.1-1.4 2.2-2.4 3-3 1.9 0.1 3.9 0.2 5.8 0.2-1.1 0.4-2.9 1.2-4.6 2.7z"/> <path class="st46" d="m170.5 112.8c0.9-0.1 6-0.5 9.7 3 2.5 2.3 3 5.2 3.3 6.8 1 5.1-0.9 9.3-1.8 10.9 0 0-10.1-6.9-16.1 0.3-0.3 2.5-0.8 3-1.1 3.1-0.9 0.1-2-3.4-2.4-6.2-0.3-1.9-0.2-3.4 0-6.4 0.2-3.7 0.3-5.6 1-6.9 1.9-3.3 5.6-4.8 5.9-4.5 0.2 0.2-1.3 1.2-2.8 3.5-0.8 1.3-3.2 4.9-2.5 8.8 0.5 2.7 2.3 5.7 2.3 5.7 6.8-2.2 9.1-1.8 9.8-1.6 0.2 0.1 2.2 0.7 4.7 1.5 0.4-0.8 2.2-5.3 0.2-10.2-2.7-6.4-9.7-7.7-10.2-7.8z"/> <linearGradient id="b" x1="220.02" x2="240.82" y1="153.89" y2="189.91" gradientTransform="matrix(-1 0 0 1 407.81 0)" gradientUnits="userSpaceOnUse"> <stop stop-color="#FBD7DF" offset="0"/> <stop stop-color="#F9D4DD" offset=".3766"/> <stop stop-color="#F3CDD7" offset=".5123"/> <stop stop-color="#EBC1CD" offset=".609"/> <stop stop-color="#E2B2BF" offset=".6873"/> <stop stop-color="#D69EAF" offset=".7543"/> <stop stop-color="#C8889D" offset=".8136"/> <stop stop-color="#B8718A" offset=".8672"/> <stop stop-color="#A85576" offset=".9149"/> <stop stop-color="#983564" offset=".959"/> </linearGradient> <path class="st52" d="m128.5 156.9c-3.5-0.4-5.6-0.1-6.1 1-1 1.9 2.9 6.2 11.5 12.9 11.7 5.3 24.4 7.3 36.4 11.4 4.6 0.2 9 0 12.5 2.3 2.3 2.1 4.8-1.4 6.9 0.7 3.1 0.9 6 3 9.6 2.1 2.7 2.3 6.7-1.4 9 1.6 3.1 2.3 5.8-3.6 8.5-0.2 0.7 0.4 1.2 0.5 1.7 0.4 1.7-0.2 2.8-1.4 3.7-2.2 1.2-1 3.3-2 7.2-1.9 3.8-1.6 5.7-2.9 5.5-3.8-0.2-1.3-4.8-1.9-13.5-1.7-2.1-3.6-6.2 0-9-2.1-1.9-1.1-4.2 0.2-4.8 1.6-3.3-1.4-7.1-3.7-10.8-2.1-4.2 0-7.3-3.6-11.9-2-5.2-3.7-11.9-0.5-17.9-2.3-0.8 0.4-3.8 1.9-7.7 1.1s-6.1-3.3-6.7-4c-2.4 0.1-5.7 0-9.3-1.1-8.9-2.6-13.4-9.5-14.8-11.7z"/> <path class="st53" d="m178.5 107c0.7 3.3 10.7 1.2 15.4 7 1.4 1.8 2 3.7 2.1 4.2 0.6 2.6-0.1 4.2-0.8 8.1-0.3 1.6-0.5 4.5-1 10.3-0.2 2.7-1.4 5.1-2 7.8-0.1 0.2-0.2 0.9-0.8 1.3-0.7 0.5-2.1 0.3-2.7-0.3-1.5-1.6 3.4-5.7 4-12.9 0.1-1 0-1.3 0.2-5.8 0.2-4.1 0.2-4.1 0.2-4.8 0-0.5 0.6-8.4-4-8.4-3 0-8.9-2.4-11.4-4.2-1.1-0.8-1.8-1.4-2.3-1.8-1.7-1.6-3.1-2.9-3.1-4.3 0.2-2.8 6.1-5 7.3-3.8 0.2 0.2 0.3 0.6 0 2.4-0.7 4.2-1.3 4.4-1.1 5.2z"/> <path class="st35" d="m204.6 137.6c3.7 0.1 6.8 0.3 9.2 0.5 7.4 0.5 13.3 1.3 19 4.1 1.4 0.7 2.7 1.5 3.4 2.9 0.6 1 1.1 2.8-0.6 8.3-1.5 4.8-3.3 8.2-3.5 8.5-1.7 3-4.4 7.1-8.7 11.5-0.7-0.1-1.4-0.1-2.1-0.2 3-3.5 6.2-7.9 9-13 1-1.7 1.8-3.4 2.6-5.1 0.3-0.9 0.6-2.3 0.8-4 0.2-1.8 0.3-2.7-0.1-3.8-0.6-1.6-1.9-2.6-2.9-3.1-3.6-2.7-6.6-3.3-8.8-3.5-2.6-0.1-5.6 0.5-11.2 0.4-0.2 0-0.9 0-1.8-0.1-0.7-0.1-7.1-0.6-7.1-1.8 0-0.7 1.5-1.2 2.8-1.6z"/> <path class="st53" d="m171.5 99.9c-2.3 0.5-6.8 1.7-10.2 5.4-1.7 1.9-2.4 3.5-3.7 6.7-1 2.5-3 7.9-3.5 15.2-0.2 2.4 0 4.8 0.3 9.6 0.4 7.2 1.1 9.4 1.8 10.7 0.2 0.3 0.3 0.5 0.4 0.6 2.3 3.2 6.9 3.7 7.1 3.2 0.1-0.2-0.9-0.9-1.2-1.1-1.2-0.8-2.2-0.9-2.8-1-1.9-0.6-3.3-3.1-3.3-4.7 0.1-9.1 0.4-22.5 0.8-23.9 1.7-6.3 2.9-10.2 6.5-13.9 3.4-3.5 8.1-6 8.3-5.7 0.1 0.2-1.3 1.4-1.1 1.6 0.3 0.3 4.3-1.9 4-2.6 0-0.4-0.7-0.6-3.4-0.1z"/> <path class="st54" d="m123 122.7c-2 0.3-5.2 1.1-8.3 3.6-1 0.8-1.8 1.6-2.4 2.4 2.7 2.5 7 5.9 13.2 8.4 4.5 1.9 8.7 2.6 11.8 3 2.3-0.1 2.9-1 2.9-1.2 0.8-1.4-0.8-4.2-4.3-6.5-2-1.5-4-2.9-5.9-4.4-2.4-1.8-4.7-3.6-7-5.3z"/> <path class="st35" d="m196.6 144.5c2.2 1 5.6 2.5 10 3.5 10.7 2.5 17.8 0.5 20.5 4.7 1.2 1.8 0.9 3.9 0.8 5.1-0.3 2.8-1.6 3.1-9.3 11.5-1.3 1.4-2.8 3.1-5.1 3.3-1.2 0.1-2.2-0.3-2.8-0.6 3.3-2.1 5.8-4.1 7.7-5.7 2.6-2.2 6.1-5.4 6.3-8 0.2-2.3-0.7-4-0.7-4s-0.1-0.1-0.1-0.2c-1.6-2.9-27-2.5-28.3-7.1 0-0.4 0-1.2 1-2.5z"/> <path class="st42" d="m180.3 100c-2.7-0.4-5 1-5.6 2.9-0.7 2.3 1.2 5.6 4.6 6l13.4 3.6c0.5-1 1.8-3.8 0.8-6.7-1.5-4.1-7-6.9-13.2-5.8z"/> <path class="st55" d="m190.4 104.5c-0.1 0.1-0.3 0.4-0.5 0.7-1.1 1.8-0.4 3-1 3.8-0.6 0.7-2.6 0.1-6.6-1-2.4-0.7-3-1-3.6-1.6-0.9-1-1.3-2.7-0.6-3.9 0.5-0.9 1.3-0.7 2.8-1.7 1.9-1.3 1.9-2.4 2.8-2.7 0.9-0.4 2.8 0.5 6.7 6.4z"/> <path class="st56" d="m246 95.4c-1.3-0.4-2.6-0.8-4-1.1-3.7 6-7.4 12-11.2 18-17 27-34.3 52.7-51.8 77.3-1.9-0.3-4.7-0.5-7.5 0.8-5 2.2-6.9 7.3-9.5 13.8-1.9 4.9-4.9 12.5-9.3 23 3 1.4 6.1 2.7 9.1 4.1 3.8-3.5 6.7-6.2 8.5-7.8 5.8-5.3 7.9-7.2 10.5-10.6 2.8-3.6 4.2-5.5 4.7-8.4 0.8-4.9-1.6-9-2.8-10.8 11.4-15.5 23.1-32.4 34.7-50.5 10.5-16.5 20-32.5 28.6-47.8z"/> <path class="st57" d="m199.5 88.2c-0.7-0.2-1.7-0.5-3-0.8-3-0.7-4.9-1.2-7-1-1.2 0.1-3.8 0.5-6.7 2.9-4.6 2.7-5.5 3.9-5.3 4.5 0.1 0.3 0.6 0.6 0.8 1.3s0 0.9 0.1 1.5c0.2 1 0.9 1.6 1.7 2.3 0.7 0.6 0.8 0.5 2 1.4 1.3 1 1.4 1.3 1.9 1.3 0.5 0.1 1.4-0.2 2.5-1.9 1.7-1.7 3.4-3.3 5.1-5l7.9-6.5z"/> <path class="st55" d="m199.8 90.1c-0.2 0.9-0.5 2.4-0.4 4.1 0.2 3 1.3 4.8 0.4 5.8-0.3 0.3-0.9 0.6-2.2 0.5 0 0.5 0 1.1-0.2 1.9-0.2 1.1-0.4 2.3-1.4 3.1-0.6 0.5-1.2 0.6-1.9 0.6-1.8 0.2-3.4-0.4-4.3-0.9-0.6-0.6-1.2-1.1-1.8-1.7-0.4-1.3-0.9-2.6-1.3-3.8-0.5-0.7-1-1.4-1.6-2.1-1.6-1.5-1.8-3.2-1.1-4 0.5-0.6 1.4-0.5 1.7-0.5 0.5 1 1 1.9 1.5 2.9l1.7 0.6c-0.3-0.6-1.6-3.7-0.5-4.8 0.2-0.2 0.4-0.3 1.9-0.5 1.1-0.2 2.1-0.3 2.8-0.4 0.9-1 1.8-1.9 2.7-2.9 1.3 0.7 2.7 1.4 4 2.1z"/> <path class="st58" d="m198.7 91.4c-1.2 1.1-2.3 1.5-3.1 1.7-1.4 0.3-2.3-0.1-3 0.6-0.6 0.5-0.7 1.4-0.7 2.1 1.7-0.3 3.4-0.6 5.1-0.9 0.5 0.9 1 1.9 1.5 2.8-0.5 0.4-1 0.7-1.5 1.1 0 0.6 0.1 1.2 0.1 1.8l-0.9 0.2c-0.8-0.2-1.7-0.3-2.5-0.5 0.2 0.5 0.3 0.9 0.5 1.4 1.1 0.3 2.2 0.5 3.3 0.8l0.6-2.7c0.1 0 1.6 0 2.1-0.9 0.1-0.1 0.2-0.4 0-1.1-0.1-0.5-0.3-1.3-0.8-2.3-0.3-0.5-0.6-1.1-1-1.6 0.1-0.9 0.2-1.7 0.3-2.5z"/> <path class="st59" d="m200.6 91.5c-1.7-0.7-7.4-2.8-13.7-0.4-2.2 0.9-3.9 2.1-5.1 3.1 0.4 1.1 1 2.4 1.8 3.7 2 3.4 4.4 5.7 6.3 7.2-1-0.5-2.1-1-3.1-1.6-1.4-0.9-3.2-2.4-4.8-4.6-1.1-1.4-1.8-2.7-2.3-3.9-0.4 0.4-0.8 0.9-1.2 1.3-0.9-0.8-2.5-2.6-3.2-5.4-0.9-3.7 0.3-7.1 1.6-9 4.8-6.9 19.8-7.7 23.9-1 2.4 3.9 0.6 8.9-0.2 10.6z"/> <path class="st60" d="m194.7 77.7c0.3 0.7 0.6 1.3 0.9 2-1-0.7-3.3-2.3-6.5-2.1-2.2 0.1-3.9 1-5.1 1.6-1.9 1-3.3 2.3-4.1 3.1-1 1.1-2.3 3.1-2.8 5.8-0.1 0.8-0.3 1.9 0 3.4 0.4 1.7 1.3 2.9 1.8 3.4 0.7-0.5 1.6-1.2 2.8-2 2.2-1.6 3.4-2.4 3.6-2.5 1.3-0.7 3.2-1 7.1-1.5 2.3-0.3 3.2-0.3 4.2-0.1 1.4 0.3 2.5 0.9 3.2 1.4 0.3-1.3 0.7-2.5 1-3.8 0-0.8-0.1-3.4-2-5.7-1.5-1.9-3.2-2.7-4.1-3z"/> <linearGradient id="a" x1="208.84" x2="211.3" y1="84.506" y2="84.506" gradientTransform="matrix(-1 0 0 1 407.81 0)" gradientUnits="userSpaceOnUse"> <stop stop-color="#FFF200" offset="0"/> <stop stop-color="#ED1651" offset="1"/> </linearGradient> <path class="st61" d="m196.5 81.2c0.5 0.3 1.3 1.1 1.9 2.3 1 2 0.4 3.9 0.3 4.4-0.5-0.2-1-0.3-1.5-0.5 0.2-0.5 0.3-1.2 0.4-2 0-2-0.7-3.5-1.1-4.2z"/> <linearGradient id="k" x1="211.24" x2="213.98" y1="84.07" y2="84.07" gradientTransform="matrix(-1 0 0 1 407.81 0)" gradientUnits="userSpaceOnUse"> <stop stop-color="#FFF200" offset="0"/> <stop stop-color="#ED1651" offset="1"/> </linearGradient> <path class="st62" d="m193.8 81.2c0.5 0.2 1.4 0.7 2 1.8 0.8 1.3 1 3.4 0.1 3.9-0.2 0.1-0.6 0.3-1.5-0.1 0.1-0.8 0.1-1.7 0-2.9-0.1-1.1-0.3-2-0.6-2.7z"/> <linearGradient id="j" x1="214.36" x2="216.76" y1="83.878" y2="83.878" gradientTransform="matrix(-1 0 0 1 407.81 0)" gradientUnits="userSpaceOnUse"> <stop stop-color="#FFF200" offset="0"/> <stop stop-color="#ED1651" offset="1"/> </linearGradient> <path class="st63" d="m191.5 81.2c0.2 0.3 2.7 3.7 1.7 4.9-0.5 0.6-1.8 0.6-2.1 0.2-0.2-0.3 0.3-0.8 0.6-1.6s0.4-1.9-0.2-3.5z"/> <path class="st64" d="m187.3 80.1c-1 0.4-2.4 1.1-3.8 2.3-3.5 2.9-4.4 6.6-4.7 6.5s0-4 2.8-6.5c2.1-2 4.7-2.3 5.7-2.3z"/> <path class="st65" d="m141.5 62.7c0.3 1.3 0.1 2.3-0.1 3-0.4-0.1-1-0.2-1.4-0.7-0.7-0.7-0.3-1.6-0.6-3.2-0.3-1.9-1-2.7-0.8-2.9 0.3-0.2 2.4 1.5 2.9 3.8z"/> <path class="st65" d="m136.1 58.1c0.5 0.4 1.5 1.3 1.9 2.8 0.1 0.3 0.6 2.4-0.4 3-0.8 0.5-1.9-0.2-2-0.3 0.2-0.6 0.5-1.5 0.6-2.5 0.2-1.3 0.1-2.3-0.1-3z"/> <path class="st65" d="m134.5 58.2c0.8 2.6 0.7 4.6-0.3 5.2-0.5 0.3-1.4 0.3-1.7-0.1s0.2-1 0.8-2.1c0.4-0.7 0.8-1.7 1.2-3z"/> <path class="st53" d="m198.7 103.3c1.4 1.8 3.4 4.7 4.5 8.7 1.2 4.4 0.7 7.8-0.2 14-0.8 5.7-1.3 8.6-3.2 11.3-1.7 2.3-2.9 2.6-4.7 5.7-1.6 2.8-1.5 4-3.2 5.3-2.2 1.8-5.2 1.8-6 1.3l-0.3-0.3c-0.4-0.7-0.6-1.2-0.5-1.6 0.2-0.6 1.1-0.8 1.3-0.8 2.5-0.6 6.4-4.6 7.8-6 3.7-3.7 5.2-8 5.7-9.4 0.6-1.8 0.8-4.6 1.3-10.3 0.6-7.8 0.4-9.9 0-11.5-0.7-2.7-1.7-4.9-2.5-6.4z"/> <path class="st66" d="m179.2 131.6c3.4 2.3 1.7 9.7 1.5 10.4l10.4 5.1 13.3 4.6 8.1-0.1c0.3 0.9 0.7 1.8 1 2.7-0.4 0.5-0.9 1-1.3 1.6-1.4 1.1-2.9 2.1-4.3 3.2-2.7-0.6-5.5-1.1-8.2-1.7-2.4-0.8-4.9-1.5-7.3-2.3-3.3 0.2-6.1 0-8.1-0.1-8.4-0.6-11.8-2.4-12.7-3-1.1-0.7-2-1.3-2.5-1.8-1-5.9-1.9-11.7-2.9-17.6l3-2.1c1.6-0.2 4.1-0.4 7 0.1 1.4 0.4 2.3 0.5 3 1z"/> <path class="st34" d="m178.3 131.5c2.5 5.8 1.9 8.9 0.8 10.8s-3.4 3.5-3.2 3.8c0.2 0.2 1.1-0.3 2-0.7 1.6-0.7 2.4-1.4 3.6-1.3 0 0 0.2 0 0.5 0.1 1.4 0.5 19.8 7.9 20.8 8.4 2.9 1.3 4.9-2 7.4-0.8 1.9 0.9 2.7 2.9 3.4 2.6 0.6-0.3 0.7-2.3-0.3-3.3-0.9-0.9-2.3-1-4.9-0.7-1.7 0.2-3.8 0.2-5.6-0.7-6-3.1-12-3.4-14.1-4.3-3.5-1.7-5.3-2.5-6-3.9-1.5-2.9 0.3-6.1-1.8-8.3-0.8-1.2-1.9-1.5-2.6-1.7z"/> <path class="st67" d="m179.2 196.6c1 1.6 2.3 4.1 2.2 7.1-0.2 5-4 7.9-11.6 16.1-2.2 2.4-5.4 5.9-9.1 10.4-0.7-0.1-1.3-0.1-2-0.2-0.8-0.6-1.7-1.2-2.5-1.8 7.7-10.5 15.4-21 23-31.6z"/> <path class="st67" d="m176.5 195.1c-7.2 11-14.3 22-21.5 33 2.1-6.7 4-12.4 5.5-16.8 4.2-12 6.1-15.9 9.8-17 2.3-0.7 4.7 0.1 6.2 0.8z"/> <path class="st30" d="m230.6 171.5-9.2 1.6-22.2-3.2c-1.3 2.1-2.6 4.1-3.9 6.2 2.4 0.1 4.7 0.3 7.1 0.4l22.7 0.3 9.2-1.3-3.7-4z"/> <path class="st34" d="m166.9 132.4c0.4 2 1.1 5 1.6 8.6 1 6.5 0.9 9.2 3 11 1 0.9 2.1 1.2 5.9 1.5 9.6 0.9 12.8-0.2 17.9 0.9 2.2 0.5 5.4 1.5 9 3.8 0.6 0.1 1.9 0.1 3.2-0.7 1.8-1.1 2.3-3.1 2.4-3.6 0.3-1.4-0.1-2.1 0.3-2.3 0.6-0.3 2.4 0.9 2.6 2.4 0.1 0.4 0 0.8-1.3 3.2-1.1 1.9-1.7 2.8-2.2 3.3-1.3 0.9-3 1.3-4.5 1-1.9-0.4-2.4-1.8-4.1-3.2-2.8-2.4-6.1-2.8-9.7-3.2s-3.3 0.3-8.7 0.3c0 0-11.4 0-14.1-4-0.3-0.4-0.4-0.9-0.4-0.9-0.4-1.1 0.2-2.2-1.3-7-1.2-3.9-2.6-6.3-1.5-8.8 0.4-1 1.3-1.8 1.9-2.3z"/> <polygon class="st30" points="144.6 154.2 135.8 148.3 125.5 143 124.7 149 137.2 157.2"/> <path class="st66" d="m213.3 95.3c3.5 0.2 7 0.4 10.5 0.7 4.5 1.6 9.1 3.2 13.6 4.8l7.5 0.3c0.1 1.1 0.2 2.3 0.3 3.4-0.6 0.7-1.1 1.4-1.7 2.2-0.7 0.3-1.4 0.6-2 1-0.9 0.3-1.7 0.5-2.6 0.8 0-0.1-0.7-1.6-2.2-1.9-1.4-0.3-2.4 0.5-2.6 0.6-0.6-0.7-1.6-1.6-3.1-2.4-2.4-1.3-4.5-1.4-4.9-1.4-2.1-0.1-2.9 0.5-6.3 1.3-2.1 0.5-3.9 0.7-5.1 0.8-0.2 0.3-1.1 1.5-2.5 1.7-0.5 0.1-1-0.1-1.7-0.4-2.2-1-3.6-5.3-1.1-9.6 1.3-0.7 2.6-1.3 3.9-1.9z"/> <path class="st34" d="m210 93.5c2.7-0.1 6.4-0.1 10.8 0.7 9.1 1.6 16.6 5.7 16.7 5.6 0 0-0.3-0.2-1.8-0.8 0.8 0.1 1.8 0.2 2.9 0.3 1.7 0.1 2.3-0.2 3.9 0 1.3 0.2 1.9 0.2 2.3 0.5 1.7 1.5 0.2 6.2-0.3 6.2-0.3 0-0.5-1.6-0.5-1.7-0.2-2 0.6-3.1 0.2-3.5-0.3-0.3-1 0.1-2.1 0.4-1.7 0.5-3.3 0.3-6.4-0.2-1.4-0.2-2.1-0.2-2.9-0.5-2.4-0.8-3.3-2.4-9-3.5-4.8-0.9-8.7-0.7-10.5-0.5-1.5 0.1-2.8 0.4-3.7 0.6 0-1.2 0.2-2.4 0.4-3.6z"/> <path class="st68" d="m126.8 118.6c1.1 1.6 2.2 3.2 3.3 4.7-1.5-0.5-4.1-1.1-7.1-0.7-1.2 0.2-6.9 0.9-9.7 5.1-1.1 1.6-1.1 3-2.2 3.2-0.8 0.2-1.7-0.4-4.1-3.6-3.6-4.7-5.4-7.2-5.4-10.2 0-2.6 1.2-4.9 1.5-4.8 0.3 0-0.1 2.1 0.4 5 0.4 2 1 3.3 1.5 4.4 0.8 1.6 2.2 4.1 4.8 6.7 1.4-1.7 4.3-4.7 8.8-6.3 2.2-0.8 4.4-1.5 6.9-0.7 1.5 0.5 2.5 1.4 2.9 1.1 0.4-0.5-0.6-2.3-1.6-3.9z"/> <path class="st16" d="m217.4 57.1s7.9-12.3 9.4-25.2c0 0-6.8 20.2-12.5 24.4-0.5 0.4 3.1 0.8 3.1 0.8z"/> <path class="st16" d="m213.7 56.3s7.1-5.2 10.7-27.9c0 0-5.2 18.8-12.4 27.4-0.3 0.3 1.7 0.5 1.7 0.5z"/> <path class="st16" d="m211.3 56.1s8.8-18.1 11-36.7c0 0-7 26.4-12.7 34.1-1.9 2.5 1.7 2.6 1.7 2.6z"/> <path class="st16" d="m207.3 55.2s7.6-8.3 12.4-40.9c0 0-6.1 29.3-14.7 40.2-0.4 0.7 2.3 0.7 2.3 0.7z"/> <path class="st16" d="m209.7 55.5s6.1-23.1 5.8-42.2c0 0-3.2 32.5-8.9 41.4-0.4 0.7 3.1 0.8 3.1 0.8z"/> <path class="st16" d="m205 54.8s6.8-10.8 6.2-42.2c0 0-0.8 28-8.5 40.8-0.7 1.2 2.3 1.4 2.3 1.4z"/> <path class="st16" d="m203.3 54.7s5-20.1 3.4-38.7c0 0-1.4 29.2-6 37.8-0.1 0.4 2.6 0.9 2.6 0.9z"/> <path class="st16" d="m199.5 54s5.5-9.4 3.8-42.3c0 0 0.2 28.5-5.7 41.8l1.9 0.5z"/> <path class="st16" d="m190.8 51.9s-2.1-21.1 2-39.6c0 0-2.5 28.9 0.2 39.8l-2.2-0.2z"/> <path class="st16" d="m194.7 53.1s-5-11.5 1.7-42c0 0-5.5 27.8 0.3 41.6 0.3 0.9-2 0.4-2 0.4z"/> <path class="st16" d="m186.8 51.4s-4.1-17.2-3.2-33.9c0 0 1.7 25.3 5.3 34l-2.1-0.1z"/> <path class="st16" d="m189.9 52.1s-4.8-6.4-2.3-32c0-0.4-1.1 22.1 5.7 32.3 0.7 1.2-3.4-0.3-3.4-0.3z"/> <path class="st16" d="m183.6 51s-4.6-11.9-5.8-24.6c0 0 4.1 18.6 7.8 24.6h-2z"/> <path class="st16" d="m187 51.4s-4.9-4.9-6.8-25.6c0 0 2.6 17.9 8.2 25.7l-1.4-0.1z"/> <path class="st16" d="m219.7 57.3s8.2-7.8 11.2-18.2c0 0-8.4 13.1-13.4 17.2-1.1 0.9 2.2 1 2.2 1z"/> <path class="st16" d="m222.9 58.1s7.4-6 10.1-14.7c0 0-6.9 11.6-12.2 14.1l2.1 0.6z"/> <path class="st16" d="m180.8 50.8s-6.3-11.6-9.3-25.3c0 0 7 19.6 11.7 25.3h-2.4z"/> <path class="st16" d="m184.8 51.2s-5.7-3.9-10.6-26.4c0 0 5.3 19.1 12.3 26.4h-1.7z"/> <path class="st18" d="m196.8 54.8s6.6-9.5 7.7-19.5c0 0-5.5 15.6-10.3 18.8-0.4 0.3 2.6 0.7 2.6 0.7z"/> <path class="st18" d="m193.6 54.1s6-4 8.7-21.5c0 0-4.2 14.5-10.2 21.1-0.1 0.2 1.5 0.4 1.5 0.4z"/> <path class="st18" d="m191.6 53.9s7.2-14 8.9-28.4c0 0-5.6 20.4-10.3 26.3-1.6 2 1.4 2.1 1.4 2.1z"/> <path class="st18" d="m188.2 53.2s6.3-6.3 10-31.6c0 0-4.8 22.7-11.9 31.1-0.4 0.4 1.9 0.5 1.9 0.5z"/> <path class="st18" d="m190.3 53.4s4.9-17.9 4.3-32.7c0 0-2.3 25.2-7 32.1-0.3 0.5 2.7 0.6 2.7 0.6z"/> <path class="st18" d="m186.3 52.8s5.7-8.3 4.8-32.7c0 0-0.3 21.7-6.7 31.5-0.7 1.1 1.9 1.2 1.9 1.2z"/> <path class="st18" d="m184.8 52.7s4-15.5 2.4-30c0 0-0.8 22.6-4.6 29.2-0.1 0.4 2.2 0.8 2.2 0.8z"/> <path class="st18" d="m181.6 52.1s4.5-7.2 2.7-32.8c0 0 0.5 22.1-4.3 32.4l1.6 0.4z"/> <path class="st18" d="m174.2 50.4s-2-16.4 1.2-30.7c0 0-1.8 22.4 0.6 30.9l-1.8-0.2z"/> <path class="st18" d="m177.5 51.4s-4.4-9 0.9-32.5c0 0-4.3 21.5 0.8 32.3 0.3 0.7-1.7 0.2-1.7 0.2z"/> <path class="st18" d="m170.8 50s-3.7-13.4-3.1-26.3c0 0 1.7 19.7 4.9 26.5l-1.8-0.2z"/> <path class="st18" d="m173.4 50.5s-4.1-5-2.4-24.8c0-0.3-0.7 17.2 5.2 25.2 0.7 0.9-2.8-0.4-2.8-0.4z"/> <path class="st18" d="m168.1 49.7s-4-9.3-5.2-19.1c0 0 3.7 14.5 6.9 19.2l-1.7-0.1z"/> <path class="st18" d="m171 50s-4.2-3.8-6-20c0 0 2.4 13.9 7.3 20h-1.3z"/> <path class="st18" d="m198.7 54.9s6.8-5.9 9.2-14c0 0-6.9 10.1-11.1 13.2-0.9 0.7 1.9 0.8 1.9 0.8z"/> <path class="st18" d="m201.5 55.6s6.2-4.6 8.4-11.3c0 0-5.7 9-10.2 10.8l1.8 0.5z"/> <path class="st18" d="m179.7 51.7s2.1-31.2 3.5-33.7c0 0-0.5 0-1.3 4.3s-4.1 26.4-2.9 29.2l0.7 0.2z"/> <path class="st18" d="m165.8 49.5s-5.5-9.1-8.2-19.7c0 0 6.1 15.3 10.2 19.8l-2-0.1z"/> <path class="st18" d="m169.1 49.8s-4.8-3.1-9.3-20.6c0 0 4.7 14.9 10.7 20.6h-1.4z"/> <path class="st69" d="m96.2 34.2c-1.5 0.9-1.3 3.2 0.7 3 0.5 1.9 2.4 2.3 4.9 2 1 1 2.9-1 3.6 0.6 5.1 0.5 9.7 1.5 13.6 3.5h1c-1.3 1.9-3.9 0.9-5.6 0.6-3.9-1.1-8.9-0.7-12.4-2.1-0.4-0.1-2.1 0.4-2.5 0.7-1.3 3.3 3.6 2.4 5.6 3.2 3.5 0.2 6.4 1 9.7 1.5 0.4 3.1 5.1-0.2 6.9 1.6 5.5-0.7 9.9 1.3 13.5 3.5 0.5-0.1 0.9-0.3 1.4-0.4 2.6-2.7-2-4-4.1-4.6-2.1-1.1-4.6-1.3-7.1-1.8 3.1-2.1 6.8-1.1 10.2-1.5 4.4-0.4 7.5 0.8 11.7 1.1 1.8-0.2 1.2-2.7 3.2-2.1 2.7-0.1 2.7-3.4 0.6-3.6-4.4-2-9.4-3.4-14.9-4 7.2-2.2 14.8-1.2 20.2 1.6 3.8-0.6 1.8-4.4-0.4-4.5-6.2-1.4-14.1-1.9-20.9-0.8-1.6-0.5-2.5 1.1-4 0.3-2 0.1-6.1 0.8-4.5 3.2-0.7 0.7-0.5 1.6-0.9 2.4-4.9-2.4-10.2-4.8-17-4.7-3.9-0.5-8.5 0.1-12.5 1.3z"/> <path class="st70" d="m108.4 36.6c6.3 0.9 12.7 1.3 17.9 3.5l1.2 0.3c0.2-0.3 0.6-0.5 0.8-0.8-5.7-2.2-12.2-4.5-19.9-3z"/> <path class="st70" d="m124.4 36.1c6.2 0.9 12.7 1.3 17.8 3.5l1.2 0.3c0.2-0.3 0.6-0.5 0.8-0.8-5.6-2.2-12-4.6-19.8-3z"/> <path class="st70" d="m129.5 38.4c6.2 0.9 12.7 1.3 17.8 3.5l1.2 0.3c0.2-0.3 0.6-0.5 0.8-0.8-5.6-2.2-12.1-4.5-19.8-3z"/> <path class="st70" d="m109.3 43.7c6.2 0.9 12.7 1.3 17.8 3.5l1.2 0.3c0.2-0.3 0.6-0.5 0.8-0.8-5.6-2.2-12.1-4.6-19.8-3z"/> <path class="st71" d="m133.2 167.1c-6.3-2.8-10.9-8.8-9.9-10.3 0.9-1.3 6.7 1.1 9.9 2.5 4.8 2.1 13.7 6.7 13 8.7-0.5 1.7-7.4 1.6-13-0.9z"/> <path class="st72" d="m131.6 57.6c-1.2 0.3-2.9 0.8-4.5 1.7-4.2 2.2-5.2 4.9-5.6 4.8s0-2.9 3.3-4.8c2.5-1.4 5.5-1.6 6.8-1.7z"/> <path class="st73" d="m138.1 249.3s8-13 8.6-26.8c0 0-5.6 21.2-11.8 25.5-0.5 0.4 3.2 1.3 3.2 1.3z"/> <path class="st73" d="m133.9 247.9s7.7-5.4 9.9-29.6c0 0-4.4 20-11.9 29.1-0.3 0.3 2 0.5 2 0.5z"/> <path class="st73" d="m131.1 247.7s8.6-19.3 9.5-39.1c0 0-5.7 28.1-11.7 36.3-1.9 2.6 2.2 2.8 2.2 2.8z"/> <path class="st73" d="m127 246.3s7.9-8.7 10.8-43.5c0 0-4.5 31.3-13.4 42.8-0.6 0.6 2.6 0.7 2.6 0.7z"/> <path class="st73" d="m129.3 247s5-24.6 3-45.1c0 0-0.9 34.8-6.6 44.2-0.5 0.8 3.6 0.9 3.6 0.9z"/> <path class="st73" d="m124.1 245.8s6.9-11.4 3.6-45.1c0 0 1.4 30-6.3 43.5-0.8 1.3 2.7 1.6 2.7 1.6z"/> <path class="st73" d="m122 245.5s4-21.4 0.7-41.4c0 0 0.9 31.3-3.6 40.4-0.3 0.4 2.9 1 2.9 1z"/> <path class="st73" d="m117.8 244.7s5.5-9.9 0.7-45.3c0 0 2.6 30.6-3 44.7l2.3 0.6z"/> <path class="st73" d="m107.3 242.7s-4.2-22.6-1.1-42.5c0 0-0.4 31 3.6 42.7l-2.5-0.2z"/> <path class="st73" d="m111.9 243.4s-6.7-12.4-1.6-45c0 0-3.9 29.7 3.8 44.6 0.6 1.1-2.2 0.4-2.2 0.4z"/> <path class="st73" d="m102.7 242.1s-6.1-18.5-6.5-36.4c0 0 4.1 27.2 8.9 36.6l-2.4-0.2z"/> <path class="st73" d="m107.1 242.8s-7.1-9.5-7.7-39c0 0 0.8 27.1 9.4 38.2 1 1.2-1.7 0.8-1.7 0.8z"/> <path class="st73" d="m99 241.6s-6.3-12.9-8.7-26.5c0 0 6.3 20.1 11 26.5h-2.3z"/> <path class="st73" d="m102.9 242.1s-6-5.3-9.9-27.7c0 0 4.5 19.2 11.6 27.7h-1.7z"/> <path class="st73" d="m140.3 249.7s8.7-8.1 11.2-19.3c0 0-7.6 14.9-13.8 18.1l2.6 1.2z"/> <path class="st73" d="m144.9 250.5s8-6.3 10.3-15.6c0 0-7 12.3-12.8 14.9l2.5 0.7z"/> <path class="st73" d="m114.9 244.1s0.1-43.1 1.8-46.5c0 0-0.7 0-1.4 5.9s-3.2 36.4-1.3 40.3l0.9 0.3z"/> <path class="st73" d="m95.8 241.3s-8.2-12.6-12.8-27.4c0 0 9.6 21.2 15.5 27.4h-2.7z"/> <path class="st73" d="m100.4 241.8s-6.8-4.3-14.4-28.5c0 0 7.7 20.6 16.3 28.6l-1.9-0.1z"/> <path class="st74" d="m76 252.4s12.3-14.2 14.8-29.7c0 0-10.7 23.8-19.5 28.5-0.7 0.4 4.7 1.2 4.7 1.2z"/> <path class="st74" d="m71.9 251.7s10.9-5.8 16.8-32.7c0 0-8.3 22.2-19.3 32-0.5 0.4 2.5 0.7 2.5 0.7z"/> <path class="st74" d="m69 251.6s13.7-21.2 17.5-43.4c0 0-11.1 31.2-19.9 40.1-3.1 3 2.4 3.3 2.4 3.3z"/> <path class="st74" d="m61.4 251.1s11.6-9.4 19.7-48.3c0 0-9.8 34.8-23.1 47.3-0.7 0.8 3.4 1 3.4 1z"/> <path class="st74" d="m66 251.4s9.7-27.3 9.5-50.3c0 0-5.5 38.9-14.2 49.2-0.6 0.8 4.7 1.1 4.7 1.1z"/> <path class="st74" d="m58.7 250.8s10.6-12.5 10.3-50.3c0 0-1.8 33.6-13.7 48.4-1.2 1.5 3.4 1.9 3.4 1.9z"/> <path class="st74" d="m55.8 250.6s7.9-23.8 5.9-46.3c0 0-2.6 34.9-9.8 45-0.3 0.5 3.9 1.3 3.9 1.3z"/> <path class="st74" d="m51.7 249.8s8.5-10.9 6.5-50.6c0 0-0.3 34.3-9.5 49.8l3 0.8z"/> <path class="st74" d="m38.8 244.4s-2.8-25.4 3.7-47.4c0 0-4.4 34.6-0.5 47.8l-3.2-0.4z"/> <path class="st74" d="m44.9 248.9s-7.4-14.1 3.4-50.3c0 0-8.8 33-0.4 50 0.7 1.1-3 0.3-3 0.3z"/> <path class="st74" d="m32.6 243.6s-5.9-20.9-4.2-40.9c0 0 2.1 30.5 7.4 41.2l-3.2-0.3z"/> <path class="st74" d="m38.3 247.2s-7.1-8-2.9-38.6c0.1-0.5-2.2 26.5 8 39.2 1.1 1.5-5.1-0.6-5.1-0.6z"/> <path class="st74" d="m27.8 242.9s-6.8-14.6-8.3-29.9c0 0 5.8 22.7 11.3 30l-3-0.1z"/> <path class="st74" d="m34.9 247s-7.3-6.1-9.8-31.2c0 0 3.7 21.6 12 31.4l-2.2-0.2z"/> <path class="st74" d="m80.7 251.6s12.5-8.8 17.3-21.1c0 0-13 15.1-20.6 19.7-1.8 1.1 3.3 1.4 3.3 1.4z"/> <path class="st74" d="m48.5 246.8s5.4-48.1 8-51.9c0 0-1 0-2.6 6.6-1.7 6.6-8.8 40.5-6.7 45l1.3 0.3z"/> <path class="st74" d="m26 244.6s-9.3-14.4-13.7-31c0 0 10.2 24.1 17.3 31.2l-3.6-0.2z"/> <path class="st74" d="m31.7 246s-8.5-5-15.6-32.4c0 0 7.7 23.3 18.1 32.5l-2.5-0.1z"/> <path class="st75" d="m10.3 72c2.2 1.7 4.5 3.4 6.8 5.2 1.4 1.1 2.8 2.2 4.1 3.4 1.4 0.6 3.3 1.2 5.6 1.7 2.8 0.6 5.4 0.6 7.3 0.6 1 0.7 2.2 1.4 3.5 2.1 2.2 1.2 4.4 2 6.4 2.6 0.3-0.1 0.6-0.1 0.9-0.2-0.3 3.6-3 2.3-4.5 2.2-3.8-1-7.8 0.7-11.5-1.1-0.7 0.4-2.1 1-3.9 1.1-3.8 0.3-6.1-2-6.3-2.3 1 1.5 3.9 5.5 10.1 6.8 1.5 0.3 3 0.4 4.3 0.4 3-0.4 5.9 0.3 8.9 0.6 1.6 5.3 4.3-1.4 6.5 1.4 4.4-2.3 8.9 0.2 13 3.3 1.3 0.5 2.9 1 4.7 1.3 7.1 1.3 13.6-0.6 16.6-1.7-5.9-0.4-13.5-1.6-21-5.2-1.7-0.8-3.3-1.7-4.6-2.5-2.2-1.4-4.5-1.3-6.8-1.7 0.9 0.1 2.3 0.1 4 0.1 4.8-0.2 8.3-1.2 9.3-1.5 3.3-0.9 9.8-1.9 24.3-2.3-3.1-1.3-7.7-3-13.3-4.8-4.5-1.4-8.3-2.5-8.2-2.7 0.1-0.3 5.8 1.3 13.3 2 5 0.5 9.2 0.4 12 0.3-6.3-2.9-12.7-5.8-19-8.6-3.8-0.5-7.7-1-11.7-1.4-1.8-0.2-3.6-0.3-5.4-0.5 1.2-1.3 3.1-3 5.9-3.6 2.9-0.6 5.1 0.5 8.6 1.6 2.7 0.9 6.6 2 11.8 2.8-1-1.4-2-2.8-3-4.3-3.3-0.6-6.5-1.2-9.8-1.8-1.9-0.8-4.1-1.5-6.5-2-9-2.1-16.9-1-22.3 0.3 8.3 0.5 10.2 1.5 10.3 2.4 0.2 1.5-4.5 3.3-5.3 3.7-3.3 1.3-6.3 1.5-8.2 1.4 3.4 1.1 6.9 2.1 10.3 3.2 0.1 0.7 0.1 1.5 0.2 2.2-3.2-0.7-6.4-1.6-9.8-2.5-2.3-0.7-4.5-1.3-6.6-2-2.6 0.6-6.2 1.1-10.4 1.2-4.7-0.1-8.2-0.6-10.6-1.2z"/> <path class="st76" d="m327.3 177c1.8 1.3 3.7 2.7 5.5 4.1 1.2 0.9 2.3 1.8 3.3 2.7 1.3 0.5 2.9 1.2 5.1 1.7 2.6 0.7 5.1 1 7 1.2 0.9 0.6 1.9 1.2 3 1.8 1.9 1 3.9 1.8 5.7 2.4h0.9c-1 2.3-3.3 1.2-4.8 1-3.5-1.1-7.8-0.4-10.9-2-0.8 0.2-2.3 0.4-4 0.3-3.8-0.3-5.5-2-5.7-2.2 0.6 1.1 2.7 4 8.4 5.6 1.4 0.4 2.9 0.6 4.1 0.8 3 0.1 5.7 0.9 8.6 1.4 0.5 3.6 4.5-0.4 6.1 1.6 4.8-1 8.7 1.1 11.9 3.6 1.2 0.5 2.6 1 4.3 1.4 6.6 1.6 13.3 1.1 16.5 0.7-5.6-0.9-12.8-2.6-19.4-5.7-1.5-0.7-2.8-1.4-4-2.2-1.9-1.2-4.1-1.3-6.3-1.9 2.6-2.6 5.9-1.6 8.8-2.2 3.8-0.7 6.6 0.6 10.2 0.8 0.3-0.2 2.1-1.2 2.1-2.6-0.1-1.3-1.6-2.4-3.9-2.9 5.4 1.2 10.8 2.3 16.1 3.5-3.8-1.6-7.6-3.2-11.4-4.7-4-2.2-8.3-3.5-13.2-4.1 6.1-2.9 12.9-2 17.7 1.1 3.2-0.9 1.4-5.2-0.6-5.3-5.5-1.4-12.4-1.7-18.2-0.1-1.4-0.6-2.1 1.4-3.5 0.6-1.8 0.2-5.3 1.1-3.7 4-0.6 0.8-0.3 1.8-0.7 2.8-2.9-0.8-5.9-1.7-9-2.7-2.1-0.7-4.1-1.4-6-2.1-2.6 0.1-6.3 0.1-10.4-0.4-4-0.6-7.3-1.4-9.6-2z"/> <path class="st16" d="m390.4 102.2s8.2-13 10.6-27.2c0 0-7.8 21.8-13.4 26-0.4 0.3 2.8 1.2 2.8 1.2z"/> <path class="st16" d="m387.1 100.9s6.9-5.2 12-30c0 0-6.3 20.4-13.5 29.3-0.3 0.3 1.5 0.7 1.5 0.7z"/> <path class="st16" d="m385 100.5s9.5-19.3 13-39.8c0 0-8.5 28.7-14.3 36.7-2 2.7 1.3 3.1 1.3 3.1z"/> <path class="st16" d="m381.4 99.2s7.5-8.5 14.7-44.3c0 0-8 32-16.6 43.3-0.6 0.7 1.9 1 1.9 1z"/> <path class="st16" d="m383.6 99.7s7.4-25.1 8.7-46.3c0 0-5.6 35.8-11.5 45.2-0.4 0.7 2.8 1.1 2.8 1.1z"/> <path class="st16" d="m379.4 98.5s7.1-11.4 9.1-46.3c0 0-3.1 31-11.1 44.5-0.8 1.4 2 1.8 2 1.8z"/> <path class="st16" d="m377.8 98.3s6.2-21.8 6.3-42.6c0 0-3.6 32.2-8.5 41.4-0.2 0.4 2.2 1.2 2.2 1.2z"/> <path class="st16" d="m374.4 97.1s5.8-9.9 6.9-46.6c0 0-2.2 31.6-8.7 45.9l1.8 0.7z"/> <path class="st16" d="m366.7 94.1s-0.2-23.5 5-43.8c0 0-4.7 31.9-3.2 44.1l-1.8-0.3z"/> <path class="st16" d="m370.1 95.7s-3.6-13.2 5-46.4c0 0-7.3 30.4-3.2 46.1 0.3 1.2-1.8 0.3-1.8 0.3z"/> <path class="st16" d="m363.1 93.2s-2.3-19.4-0.1-37.9c0 0-0.6 28.2 2 38.2l-1.9-0.3z"/> <path class="st16" d="m365.9 94.2s-3.8-7.5 0.6-35.7c0.1-0.5-2.9 24.4 2.5 36.3 0.5 1.4-3.1-0.6-3.1-0.6z"/> <path class="st16" d="m360.3 92.5s-3.2-13.6-3.2-27.7c0 0 2.2 21 5 27.9l-1.8-0.2z"/> <path class="st16" d="m363.3 93.3s-4-5.8-4-29c0 0 0.9 20 5.3 29.1l-1.3-0.1z"/> <path class="st16" d="m392.5 102.6s8-7.9 11.6-19.2c0 0-8.7 13.8-13.5 17.9-1.1 0.9 1.9 1.3 1.9 1.3z"/> <path class="st16" d="m395.3 103.8s7.2-6.1 10.4-15.5c0 0-7.2 12.3-12.2 14.6l1.8 0.9z"/> <path class="st16" d="m357.8 92s-4.7-13.4-6.4-28.9c0 0 4.7 22.4 8.5 29.1l-2.1-0.2z"/> <path class="st16" d="m361.4 92.8s-4.8-4.8-7.5-30.1c0 0 3.2 21.7 8.9 30.3l-1.4-0.2z"/> <path class="st18" d="m371.9 97.8s6.7-9.9 8.5-20.9c0 0-6.3 16.8-10.9 20-0.3 0.2 2.4 0.9 2.4 0.9z"/> <path class="st18" d="m369.1 96.7s5.7-3.9 9.7-23.1c0 0-5 15.7-10.9 22.5-0.3 0.3 1.2 0.6 1.2 0.6z"/> <path class="st18" d="m367.3 96.4s7.7-14.9 10.4-30.7c0 0-6.7 22.1-11.5 28.3-1.7 2 1.1 2.4 1.1 2.4z"/> <path class="st18" d="m364.3 95.3s6.2-6.5 11.7-34.2c0 0-6.2 24.7-13.4 33.4-0.4 0.5 1.7 0.8 1.7 0.8z"/> <path class="st18" d="m366.1 95.8s5.9-19.4 6.6-35.9c0 0-4.2 27.7-9 34.9-0.3 0.6 2.4 1 2.4 1z"/> <path class="st18" d="m362.6 94.7s5.8-8.7 7-35.8c0 0-2.1 24.1-8.7 34.4-0.7 1.1 1.7 1.4 1.7 1.4z"/> <path class="st18" d="m361.2 94.5s4.9-16.9 4.7-33c0 0-2.6 25-6.6 32-0.1 0.3 1.9 1 1.9 1z"/> <path class="st18" d="m358.4 93.6s4.7-7.6 5.1-36.1c0 0-1.4 24.6-6.6 35.5l1.5 0.6z"/> <path class="st18" d="m351.8 91s-0.5-18.3 3.6-34c0 0-3.5 24.7-2 34.3l-1.6-0.3z"/> <path class="st18" d="m354.7 92.4s-3.2-10.3 3.5-36c0 0-5.7 23.5-2 35.8 0.3 0.9-1.5 0.2-1.5 0.2z"/> <path class="st18" d="m348.8 90.3s-2.2-15.1-0.7-29.5c0 0 0 21.9 2.3 29.7l-1.6-0.2z"/> <path class="st18" d="m351.1 91.1s-3.3-5.9-0.1-27.8c0.1-0.4-2 19 2.6 28.4 0.6 1-2.5-0.6-2.5-0.6z"/> <path class="st18" d="m346.3 89.7s-2.9-10.7-3.1-21.6c0 0 2.1 16.4 4.7 21.8l-1.6-0.2z"/> <path class="st18" d="m348.9 90.3s-3.5-4.6-3.8-22.6c0 0 1.1 15.6 4.9 22.8l-1.1-0.2z"/> <path class="st18" d="m373.7 98.1s6.7-6 9.5-14.7c0 0-7.1 10.6-11.1 13.7-1 0.7 1.6 1 1.6 1z"/> <path class="st18" d="m376.1 99.1s6-4.6 8.5-11.8c0 0-5.9 9.4-10.1 11.1l1.6 0.7z"/> <path class="st18" d="m356.7 93s4.5-34.4 5.9-37c0 0-0.5 0-1.6 4.6-1.1 4.7-5.9 28.9-5 32.1l0.7 0.3z"/> <path class="st18" d="m344.2 89.2s-4.2-10.5-5.8-22.6c0 0 4.3 17.5 7.6 22.8l-1.8-0.2z"/> <path class="st18" d="m347.3 89.9s-4.1-3.8-6.7-23.6c0 0 3.1 16.9 8 23.8l-1.3-0.2z"/> <path class="st24" d="m76.1 45.1s5.9-10.5 5.6-21.5c0 0-3.8 17.3-8.7 20.8-0.3 0.3 3.1 0.7 3.1 0.7z"/> <path class="st24" d="m73.5 44.7s6.1-4.4 6.5-23.8c0 0-2.5 16.1-8.2 23.4-0.2 0.3 1.7 0.4 1.7 0.4z"/> <path class="st24" d="m71.7 44.7s6-15.5 5.7-31.4c0 0-3.1 22.6-7.6 29.1-1.5 2.3 1.9 2.3 1.9 2.3z"/> <path class="st24" d="m66.9 44.6s6.1-7 6.4-35c0 0-1.9 25.1-8.7 34.4-0.3 0.5 2.3 0.6 2.3 0.6z"/> <path class="st24" d="m69.8 44.7s2.7-19.8-0.1-36.2c0 0 1.3 27.9-2.9 35.5-0.4 0.6 3 0.7 3 0.7z"/> <path class="st24" d="m65.2 44.4s5.1-9.2 0.3-36.2c0 0 2.9 24.1-2.7 34.9-0.5 1.1 2.4 1.3 2.4 1.3z"/> <path class="st24" d="m63.4 44.3s2.1-17.2-1.9-33.2c0 0 2.6 25.1-0.7 32.4-0.2 0.4 2.6 0.8 2.6 0.8z"/> <path class="st24" d="m60.7 43.8s4-8-2-36.3c0 0 4 24.5 0.1 35.9l1.9 0.4z"/> <path class="st24" d="m52 40.3s-4.8-18.1-3.4-34c0 0 1.4 24.8 5.5 34.2l-2.1-0.2z"/> <path class="st24" d="m56.4 43.3s-6.3-9.9-4-36c0 0-1.5 23.8 5.8 35.7 0.5 0.9-1.8 0.3-1.8 0.3z"/> <path class="st24" d="m48 39.8s-6.2-14.8-7.6-29.2c0 0 5 21.8 9.6 29.3l-2-0.1z"/> <path class="st24" d="m52 42.3s-5.4-5.5-6.5-27.5c0-0.4 1.8 19 9.7 27.9 1 1-3.2-0.4-3.2-0.4z"/> <path class="st24" d="m44.9 39.4s-6-10.3-8.8-21.2c0 0 6.4 16.1 10.7 21.2h-1.9z"/> <path class="st24" d="m49.9 42.2s-5.3-4.2-9.9-22.1c0 0 4.9 15.4 11.3 22.2l-1.4-0.1z"/> <path class="st24" d="m79 44.5s6.8-6.6 8.2-15.5c0 0-6.3 11.1-10.5 14.6-0.9 0.8 2.3 0.9 2.3 0.9z"/> <path class="st24" d="m58.3 41.8s-2.4-34.6-1.3-37.3c0 0-0.6 0-0.9 4.8-0.1 4.7-0.5 29.1 1.3 32.3l0.9 0.2z"/> <path class="st24" d="m44 40.7s-7.5-10.1-12.3-21.9c0 0 9.3 17 14.5 21.9h-2.2z"/> <path class="st24" d="m47.7 41.6s-5.9-3.4-13.7-22.8c0 0 7.6 16.5 15.3 22.9l-1.6-0.1z"/> <path class="st77" d="m314.3 134.1c1.3 1.1 3.3 2.7 6.2 3.9 2.5 1 4.7 1.4 6.3 1.5 1.5-0.1 3.6 0 6 0.5 2.7 0.6 4.8 1.7 6.3 2.5 1.3 1.1 3 2.3 5.3 3.3 1 0.4 1.9 0.8 2.8 1 1 0.1 2.1 0.2 3.3 0.3 3.2 0.1 6.1 0 8.6-0.3-2.8 0.2-4.8 1.1-6.1 1.8-1.8 1-2.6 2-4.5 2.5-1.8 0.5-3.4 0.3-4.5 0-1.5 0-3.4-0.2-5.5-0.8-2.5-0.7-4.5-1.7-5.9-2.5-0.7 0.7-1.7 1.6-3.1 2.2-4.2 1.9-8.3 0.1-9.1-0.3 1.3 0.9 3.5 2.1 6.3 2.7 3.2 0.6 5-0.1 8.7-0.1 2 0 4.9 0.3 8.6 1.4-0.5 1-0.9 2-1.4 3 2.5-0.5 5-0.9 7.4-1.4 4.8-1 8.7 1.1 11.9 3.6 1.2 0.5 2.6 1 4.3 1.4 6.6 1.6 13.3 1.1 16.5 0.7-5.6-0.9-12.8-2.6-19.4-5.7-1.5-0.7-2.8-1.4-4-2.2-1.9-1.2-4.1-1.3-6.3-1.9 1.8-0.6 4-1.2 6.6-1.6 3.5-0.5 6.6-0.5 9-0.3-1.3-1.1-2.7-2.2-4-3.3 5.3 1.1 9.4 1.7 9.6 1.1 0.2-0.7-4.4-3-3.9-2.9 5.4 1.2 10.8 2.3 16.1 3.5-3.8-1.6-7.6-3.2-11.4-4.7-4-2.2-8.3-3.5-13.2-4.1 1.4-0.7 4.1-1.7 7.4-1.8 3.1-0.1 5.6 0.7 7 1.2 5.9 1.9 8.9 2.7 9 2.4s-2.5-1.6-7.8-4c-0.4-0.5-3.3-3.5-7.6-3.3-2.2 0.1-3.8 1-4.7 1.5-3.3 2.2-6.9 0.4-7.5 0.3-2.7-0.5-4.8-1.6-6.3-2.6 1.9-1.4 5.4-3.5 10.2-4.4 3.5-0.7 6.5-0.4 8.6-0.1-5.8-2-9.9-1.6-12.5-0.8-2.8 0.9-4.1 1.7-7 2.8-3.1 1.1-7.8 2.2-14.4 1.5 7.1 2.5 14.3 5 21.4 7.5-2.9-0.3-5.8-0.5-8.8-0.8 1.1 1 2.8 2.2 5 3.2 1.7 0.7 3.2 1.1 4.5 1.3-7.8 0.8-12.8-0.8-16-2.5-2.7-1.4-5-3.4-9.3-4.1-2.9-0.5-4.1 0.1-7.3 0.1-2.5 0.3-6.4-0.2-11.4-2.2z"/> <path class="st24" d="m206.7 253.4s5.9-10.5 5.6-21.5c0 0-3.8 17.3-8.7 20.8-0.3 0.3 3.1 0.7 3.1 0.7z"/> <path class="st24" d="m204.1 253s6.1-4.4 6.5-23.8c0 0-2.5 16.1-8.2 23.4-0.2 0.2 1.7 0.4 1.7 0.4z"/> <path class="st24" d="m202.3 253s6-15.5 5.7-31.4c0 0-3.1 22.6-7.6 29.1-1.5 2.2 1.9 2.3 1.9 2.3z"/> <path class="st24" d="m197.5 252.9s6.1-7 6.4-35c0 0-1.9 25.1-8.7 34.4-0.3 0.5 2.3 0.6 2.3 0.6z"/> <path class="st24" d="m200.4 253s2.7-19.8-0.1-36.2c0 0 1.3 27.9-2.9 35.5-0.3 0.5 3 0.7 3 0.7z"/> <path class="st24" d="m195.8 252.7s5.1-9.2 0.3-36.2c0 0 2.9 24.1-2.7 34.9-0.5 1.1 2.4 1.3 2.4 1.3z"/> <path class="st24" d="m194 252.6s2.1-17.2-1.9-33.2c0 0 2.6 25.1-0.7 32.4-0.2 0.3 2.6 0.8 2.6 0.8z"/> <path class="st24" d="m191.3 252.1s4-8-2-36.3c0 0 4 24.5 0.1 35.9l1.9 0.4z"/> <path class="st24" d="m182.6 248.6s-4.8-18.1-3.4-34c0 0 1.4 24.8 5.5 34.2l-2.1-0.2z"/> <path class="st24" d="m187 251.6s-6.3-9.9-4-36c0 0-1.5 23.8 5.8 35.7 0.5 0.8-1.8 0.3-1.8 0.3z"/> <path class="st24" d="m178.6 248.1s-6.2-14.8-7.6-29.2c0 0 5 21.8 9.6 29.3l-2-0.1z"/> <path class="st24" d="m182.6 250.6s-5.4-5.5-6.5-27.5c0-0.4 1.8 19 9.7 27.9 1 1-3.2-0.4-3.2-0.4z"/> <path class="st24" d="m175.5 247.7s-6-10.3-8.8-21.2c0 0 6.4 16.1 10.7 21.2h-1.9z"/> <path class="st24" d="m180.5 250.5s-5.3-4.2-9.9-22.1c0 0 4.9 15.4 11.3 22.2l-1.4-0.1z"/> <path class="st24" d="m209.6 252.8s6.8-6.6 8.2-15.5c0 0-6.3 11.1-10.5 14.6-0.9 0.7 2.3 0.9 2.3 0.9z"/> <path class="st24" d="m188.9 250.1s-2.4-34.6-1.3-37.3c0 0-0.6 0-0.9 4.8-0.2 4.7-0.6 29.2 1.2 32.3l1 0.2z"/> <path class="st24" d="m174.6 249s-7.5-10.1-12.3-21.9c0 0 9.3 17 14.5 21.9h-2.2z"/> <path class="st24" d="m178.3 249.9s-5.9-3.4-13.7-22.8c0 0 7.6 16.5 15.3 22.9l-1.6-0.1z"/> <path class="st25" d="m333.6 193c-2.6-1.4-6.5-2.8-12.5-2.7-4.9-0.9-9.8-1.9-14.7-2.8 8.1 5.3 15.2 7.8 20.1 9 5.5 1.4 6.6 0.9 11.6 2.7 8.7 3.1 9.6 6.4 16.5 7.4 1.2 0.2 4.7 0.1 11.7-0.1 4.4-0.1 6.9-0.3 10.9 0 4.1 0.3 6.5 0.9 8.7 1.9 1.9 0.8 3.4 1.8 4.5 2.7 1.4 0.2 3.3 0.4 5.4 0.2 3.5-0.3 6.3-1.4 8-2.3-7.2-1.6-20.7-4.4-32.1-6-5.2-0.7-8.2-1.1-8.2-1.1-12.1-1.4-12.4-0.8-15.9-1.8-1.6-0.5-2.9-1-3.6-1.4-3.1-1.4-8.7-4.7-10.4-5.7z"/> <path class="st56" d="m73.7 86.7c3.4 0.9 6.2 1.9 8.1 2.7 4.6 1.9 7 3.6 10.2 2.9 1.6-0.3 2.8-1.1 3.5-1.7l10.5 2.1c0-0.4 0.1-0.8 0.2-1.2l0.3-0.9c-1.6-0.2-3.3-0.5-5.1-0.8s-3.4-0.7-5-1.1c-0.1-1-0.4-2.4-1.5-3.5-1.7-1.8-4.7-1.7-10.5-1.5-5.3 0.2-8.9 0.3-10 0.4-0.2 0.9-0.4 1.7-0.7 2.6z"/> <path class="st56" d="m139.9 99.4c3.9 0.7 7.8 1.4 11.8 2.1 0.2-0.2 0.4-0.3 0.6-0.5 0.5-0.4 1-0.7 1.5-1-2.3-0.5-4.6-1-6.9-1.5-2.2-0.6-4.5-1.1-6.7-1.7-0.1 1-0.2 1.8-0.3 2.6z"/> <path class="st77" d="m13.8 72.7c1.3 1.1 3.3 2.7 6.2 3.9 2.5 1 4.7 1.4 6.3 1.5 1.5-0.1 3.6 0 6 0.5 2.7 0.6 4.8 1.7 6.3 2.5 1.3 1.1 3 2.3 5.3 3.3 1 0.4 1.9 0.8 2.8 1 1 0.1 2.1 0.2 3.3 0.3 3.2 0.1 6.1 0 8.6-0.3-2.8 0.2-4.8 1.1-6.1 1.8-1.8 1-2.6 2-4.5 2.5-1.8 0.5-3.4 0.3-4.5 0-1.5 0-3.4-0.2-5.5-0.8-2.5-0.7-4.5-1.7-5.9-2.5-0.7 0.7-1.7 1.6-3.1 2.2-4.2 1.9-8.3 0.1-9.1-0.3 1.3 0.9 3.5 2.1 6.3 2.7 3.2 0.6 5-0.1 8.7-0.1 2 0 4.9 0.3 8.6 1.4-0.5 1-0.9 2-1.4 3 2.5-0.5 5-0.9 7.4-1.4 4.8-1 8.7 1.1 11.9 3.6 1.2 0.5 2.6 1 4.3 1.4 6.6 1.6 13.3 1.1 16.5 0.7-5.6-0.9-12.8-2.6-19.4-5.7-1.5-0.7-2.8-1.4-4-2.2-1.9-1.2-4.1-1.3-6.3-1.9 1.8-0.6 4-1.2 6.6-1.6 3.5-0.5 6.6-0.5 9-0.3-1.3-1.1-2.7-2.2-4-3.3 6.5 1 10.9 1.5 11.1 1 0.1-0.6-5.4-2.7-5.4-2.8 5.4 1.2 10.8 2.3 16.1 3.5-3.8-1.6-7.6-3.2-11.4-4.7-4-2.2-8.3-3.5-13.2-4.1 1.4-0.7 4.1-1.7 7.4-1.8 1.6 0 2.2 0.3 7 1.2 4.4 0.8 6.6 1.3 6.7 1 0.1-0.2-0.8-0.8-5.4-2.5-0.4-0.5-3.3-3.5-7.6-3.3-2.2 0.1-3.8 1-4.7 1.5-3.3 2.2-6.9 0.4-7.5 0.3-2.7-0.5-4.8-1.6-6.3-2.6 1.9-1.4 5.4-3.5 10.2-4.4 3.5-0.7 6.5-0.4 8.6-0.1-5.8-2-9.9-1.6-12.5-0.8-1.6 0.5-2.7 1.1-7 2.8-2.9 1.1-5.2 1.9-6.8 2.5 4.6 2.2 9.2 4.3 13.8 6.5-2.9-0.3-5.8-0.5-8.8-0.8 1.1 1 2.8 2.2 5 3.2 1.7 0.7 3.2 1.1 4.5 1.3-7.8 0.8-12.8-0.8-16-2.5-2.7-1.4-5-3.4-9.3-4.1-2.9-0.5-4.1 0.1-7.3 0.1-2.6 0.1-6.6-0.3-11.5-2.3z"/> </svg>